  0
SECTION
  2
HEADER
  9
$ACADVER
  1
AC1009
  9
$DWGCODEPAGE
  3
ansi_1252
  9
$INSBASE
 10
0.0
 20
0.0
 30
0.0
  9
$EXTMIN
 10
0.0
 20
0.0
 30
0.0
  9
$EXTMAX
 10
150.0
 20
100.0
 30
31.28583879069355
  9
$LIMMIN
 10
0.0
 20
0.0
  9
$LIMMAX
 10
420.0
 20
297.0
  9
$ORTHOMODE
 70
     0
  9
$REGENMODE
 70
     1
  9
$FILLMODE
 70
     1
  9
$QTEXTMODE
 70
     0
  9
$MIRRTEXT
 70
     1
  9
$DRAGMODE
 70
     2
  9
$LTSCALE
 40
1.0
  9
$OSMODE
 70
    37
  9
$ATTMODE
 70
     1
  9
$TEXTSIZE
 40
2.5
  9
$TRACEWID
 40
1.0
  9
$TEXTSTYLE
  7
STANDARD
  9
$CLAYER
  8
0
  9
$CELTYPE
  6
BYLAYER
  9
$CECOLOR
 62
   256
  9
$DIMSCALE
 40
1.0
  9
$DIMASZ
 40
2.5
  9
$DIMEXO
 40
0.625
  9
$DIMDLI
 40
3.75
  9
$DIMRND
 40
0.0
  9
$DIMDLE
 40
0.0
  9
$DIMEXE
 40
1.25
  9
$DIMTP
 40
0.0
  9
$DIMTM
 40
0.0
  9
$DIMTXT
 40
2.5
  9
$DIMCEN
 40
2.5
  9
$DIMTSZ
 40
0.0
  9
$DIMTOL
 70
     0
  9
$DIMLIM
 70
     0
  9
$DIMTIH
 70
     0
  9
$DIMTOH
 70
     0
  9
$DIMSE1
 70
     0
  9
$DIMSE2
 70
     0
  9
$DIMTAD
 70
     1
  9
$DIMZIN
 70
     8
  9
$DIMBLK
  1

  9
$DIMASO
 70
     1
  9
$DIMSHO
 70
     1
  9
$DIMPOST
  1

  9
$DIMAPOST
  1

  9
$DIMALT
 70
     0
  9
$DIMALTD
 70
     3
  9
$DIMALTF
 40
0.03937007874016
  9
$DIMLFAC
 40
1.0
  9
$DIMTOFL
 70
     1
  9
$DIMTVP
 40
0.0
  9
$DIMTIX
 70
     0
  9
$DIMSOXD
 70
     0
  9
$DIMSAH
 70
     0
  9
$DIMBLK1
  1

  9
$DIMBLK2
  1

  9
$DIMSTYLE
  2
ISO-25
  9
$DIMCLRD
 70
     0
  9
$DIMCLRE
 70
     0
  9
$DIMCLRT
 70
     0
  9
$DIMTFAC
 40
1.0
  9
$DIMGAP
 40
0.625
  9
$LUNITS
 70
     2
  9
$LUPREC
 70
     4
  9
$SKETCHINC
 40
1.0
  9
$FILLETRAD
 40
10.0
  9
$AUNITS
 70
     0
  9
$AUPREC
 70
     0
  9
$MENU
  1
.
  9
$ELEVATION
 40
0.0
  9
$PELEVATION
 40
0.0
  9
$THICKNESS
 40
0.0
  9
$LIMCHECK
 70
     0
  9
$CHAMFERA
 40
0.0
  9
$CHAMFERB
 40
0.0
  9
$SKPOLY
 70
     0
  9
$TDCREATE
 40
2305814.59849537
  9
$TDUPDATE
 40
2457359.806832234
  9
$TDINDWG
 40
0.0000000116
  9
$TDUSRTIMER
 40
0.0000000116
  9
$USRTIMER
 70
     1
  9
$ANGBASE
 50
0.0
  9
$ANGDIR
 70
     0
  9
$PDMODE
 70
     0
  9
$PDSIZE
 40
0.0
  9
$PLINEWID
 40
0.0
  9
$COORDS
 70
     1
  9
$SPLFRAME
 70
     0
  9
$SPLINETYPE
 70
     6
  9
$SPLINESEGS
 70
     8
  9
$ATTDIA
 70
     0
  9
$ATTREQ
 70
     1
  9
$HANDLING
 70
     1
  9
$HANDSEED
  5
311
  9
$SURFTAB1
 70
     6
  9
$SURFTAB2
 70
     6
  9
$SURFTYPE
 70
     6
  9
$SURFU
 70
     6
  9
$SURFV
 70
     6
  9
$UCSNAME
  2

  9
$UCSORG
 10
0.0
 20
0.0
 30
0.0
  9
$UCSXDIR
 10
1.0
 20
0.0
 30
0.0
  9
$UCSYDIR
 10
0.0
 20
1.0
 30
0.0
  9
$PUCSNAME
  2

  9
$PUCSORG
 10
0.0
 20
0.0
 30
0.0
  9
$PUCSXDIR
 10
1.0
 20
0.0
 30
0.0
  9
$PUCSYDIR
 10
0.0
 20
1.0
 30
0.0
  9
$USERI1
 70
     0
  9
$USERI2
 70
     0
  9
$USERI3
 70
     0
  9
$USERI4
 70
     0
  9
$USERI5
 70
     0
  9
$USERR1
 40
0.0
  9
$USERR2
 40
0.0
  9
$USERR3
 40
0.0
  9
$USERR4
 40
0.0
  9
$USERR5
 40
0.0
  9
$WORLDVIEW
 70
     1
  9
$SHADEDGE
 70
     3
  9
$SHADEDIF
 70
    70
  9
$TILEMODE
 70
     1
  9
$MAXACTVP
 70
    64
  9
$PLIMCHECK
 70
     0
  9
$PEXTMIN
 10
1.000000000000000E+20
 20
1.000000000000000E+20
 30
1.000000000000000E+20
  9
$PEXTMAX
 10
-1.000000000000000E+20
 20
-1.000000000000000E+20
 30
-1.000000000000000E+20
  9
$PLIMMIN
 10
0.0
 20
0.0
  9
$PLIMMAX
 10
420.0
 20
297.0
  9
$UNITMODE
 70
     0
  9
$VISRETAIN
 70
     1
  9
$PLINEGEN
 70
     0
  9
$PSLTSCALE
 70
     1
  0
ENDSEC
  0
SECTION
  2
TABLES
  0
TABLE
  2
VPORT
 70
     1
  0
VPORT
  2
*ACTIVE
 70
     0
 10
0.0
 20
0.0
 11
1.0
 21
1.0
 12
55.00000000000006
 22
41.31461342680836
 13
0.0
 23
0.0
 14
10.0
 24
10.0
 15
10.0
 25
10.0
 16
0.0
 26
0.0
 36
1.0
 17
0.0
 27
0.0
 37
0.0
 40
2022.440451532947
 41
1.036327305130295
 42
50.0
 43
0.0
 44
0.0
 50
0.0
 51
0.0
 71
     0
 72
   100
 73
     1
 74
     3
 75
     0
 76
     0
 77
     0
 78
     0
  0
ENDTAB
  0
TABLE
  2
LTYPE
 70
    11
  0
LTYPE
  2
CONTINUOUS
 70
     0
  3
Solid line
 72
    65
 73
     0
 40
0.0
  0
LTYPE
  2
BORDER
 70
     0
  3
__ __ . __ __ . __ 
 72
    65
 73
     6
 40
0.875
 49
0.25
 49
-0.125
 49
0.25
 49
-0.125
 49
0.0
 49
-0.125
  0
LTYPE
  2
CENTER
 70
     0
  3
___ _ ___ _ ___ _ _
 72
    65
 73
     4
 40
1.125
 49
0.75
 49
-0.125
 49
0.125
 49
-0.125
  0
LTYPE
  2
DASHDOT
 70
     0
  3
_._._._._._._._._._
 72
    65
 73
     4
 40
0.5
 49
0.25
 49
-0.125
 49
0.0
 49
-0.125
  0
LTYPE
  2
DASHED
 70
     0
  3
_ _ _ _ _ _ _ _ _ _
 72
    65
 73
     2
 40
0.375
 49
0.25
 49
-0.125
  0
LTYPE
  2
DIVIDE
 70
     0
  3
__..__..__..__..__.
 72
    65
 73
     6
 40
0.625
 49
0.25
 49
-0.125
 49
0.0
 49
-0.125
 49
0.0
 49
-0.125
  0
LTYPE
  2
DOT
 70
     0
  3
...................
 72
    65
 73
     2
 40
0.125
 49
0.0
 49
-0.125
  0
LTYPE
  2
HIDDEN
 70
     0
  3
__ __ __ __ __ __ _
 72
    65
 73
     2
 40
0.1875
 49
0.125
 49
-0.0625
  0
LTYPE
  2
PHANTOM
 70
     0
  3
___ _ _ ___ _ _ ___
 72
    65
 73
     6
 40
1.25
 49
0.625
 49
-0.125
 49
0.125
 49
-0.125
 49
0.125
 49
-0.125
  0
LTYPE
  2
CUTTING
 70
     0
  3
________ _ _ ______
 72
    65
 73
     6
 40
1.4675
 49
1.0
 49
-0.0725
 49
0.125
 49
-0.0725
 49
0.125
 49
-0.0725
  0
LTYPE
  2
STITCH
 70
     0
  3
_ _ _ _ _ _ _ _ _ _
 72
    65
 73
     2
 40
0.145
 49
0.0725
 49
-0.0725
  0
ENDTAB
  0
TABLE
  2
LAYER
 70
     3
  0
LAYER
  2
0
 70
     0
 62
     7
  6
CONTINUOUS
  0
LAYER
  2
CONSTRUCTION
 70
     0
 62
     7
  6
CONTINUOUS
  0
LAYER
  2
LAYER1
 70
     0
 62
     7
  6
CONTINUOUS
  0
ENDTAB
  0
TABLE
  2
STYLE
 70
    66
  0
STYLE
  2
STANDARD
 70
     0
 40
0.0
 41
1.0
 50
0.0
 71
     0
 42
2.5
  3
txt
  4

  0
STYLE
  2
TEXT538354
 70
     0
 40
0.2
 41
1.0
 50
0.0
 71
     0
 42
2.5
  3
arialbd.ttf
  4

  0
STYLE
  2
TEXT538357
 70
     0
 40
0.2
 41
1.0
 50
0.0
 71
     0
 42
2.5
  3

  4

  0
STYLE
  2
TEXT538360
 70
     0
 40
0.2
 41
1.0
 50
0.0
 71
     0
 42
2.5
  3

  4

  0
STYLE
  2
TEXT538363
 70
     0
 40
0.2
 41
1.0
 50
0.0
 71
     0
 42
2.5
  3

  4

  0
STYLE
  2
TEXT538428
 70
     0
 40
0.2
 41
1.0
 50
0.0
 71
     0
 42
2.5
  3

  4

  0
STYLE
  2
TEXT538431
 70
     0
 40
0.2
 41
1.0
 50
0.0
 71
     0
 42
2.5
  3

  4

  0
STYLE
  2
TEXT538454
 70
     0
 40
0.2
 41
1.0
 50
0.0
 71
     0
 42
2.5
  3

  4

  0
STYLE
  2
TEXT538457
 70
     0
 40
0.2
 41
1.0
 50
0.0
 71
     0
 42
2.5
  3

  4

  0
STYLE
  2
TEXT538460
 70
     0
 40
0.2
 41
1.0
 50
0.0
 71
     0
 42
2.5
  3

  4

  0
STYLE
  2
TEXT538491
 70
     0
 40
0.2
 41
1.0
 50
0.0
 71
     0
 42
2.5
  3

  4

  0
STYLE
  2
TEXT538494
 70
     0
 40
0.2
 41
1.0
 50
0.0
 71
     0
 42
2.5
  3

  4

  0
STYLE
  2
TEXT538507
 70
     0
 40
0.2
 41
1.0
 50
0.0
 71
     0
 42
2.5
  3

  4

  0
STYLE
  2
TEXT538532
 70
     0
 40
0.2
 41
1.0
 50
0.0
 71
     0
 42
2.5
  3

  4

  0
STYLE
  2
TEXT538535
 70
     0
 40
0.2
 41
1.0
 50
0.0
 71
     0
 42
2.5
  3

  4

  0
STYLE
  2
TEXT538538
 70
     0
 40
0.2
 41
1.0
 50
0.0
 71
     0
 42
2.5
  3

  4

  0
STYLE
  2
TEXT538551
 70
     0
 40
0.2
 41
1.0
 50
0.0
 71
     0
 42
2.5
  3

  4

  0
STYLE
  2
TEXT538554
 70
     0
 40
0.2
 41
1.0
 50
0.0
 71
     0
 42
2.5
  3

  4

  0
STYLE
  2
TEXT538571
 70
     0
 40
0.2
 41
1.0
 50
0.0
 71
     0
 42
2.5
  3

  4

  0
STYLE
  2
TEXT538584
 70
     0
 40
0.2
 41
1.0
 50
0.0
 71
     0
 42
2.5
  3

  4

  0
STYLE
  2
TEXT538615
 70
     0
 40
0.2
 41
1.0
 50
0.0
 71
     0
 42
2.5
  3

  4

  0
STYLE
  2
TEXT538620
 70
     0
 40
0.2
 41
1.0
 50
0.0
 71
     0
 42
2.5
  3

  4

  0
STYLE
  2
TEXT538633
 70
     0
 40
0.2
 41
1.0
 50
0.0
 71
     0
 42
2.5
  3

  4

  0
STYLE
  2
TEXT538648
 70
     0
 40
0.2
 41
1.0
 50
0.0
 71
     0
 42
2.5
  3

  4

  0
STYLE
  2
TEXT538663
 70
     0
 40
0.2
 41
1.0
 50
0.0
 71
     0
 42
2.5
  3

  4

  0
STYLE
  2
TEXT538666
 70
     0
 40
0.2
 41
1.0
 50
0.0
 71
     0
 42
2.5
  3

  4

  0
STYLE
  2
TEXT538669
 70
     0
 40
0.2
 41
1.0
 50
0.0
 71
     0
 42
2.5
  3

  4

  0
STYLE
  2
TEXT538672
 70
     0
 40
0.2
 41
1.0
 50
0.0
 71
     0
 42
2.5
  3

  4

  0
STYLE
  2
TEXT538675
 70
     0
 40
0.2
 41
1.0
 50
0.0
 71
     0
 42
2.5
  3

  4

  0
STYLE
  2
TEXT538718
 70
     0
 40
0.2
 41
1.0
 50
0.0
 71
     0
 42
2.5
  3

  4

  0
STYLE
  2
TEXT538731
 70
     0
 40
0.2
 41
1.0
 50
0.0
 71
     0
 42
2.5
  3

  4

  0
STYLE
  2
TEXT538744
 70
     0
 40
0.2
 41
1.0
 50
0.0
 71
     0
 42
2.5
  3

  4

  0
STYLE
  2
TEXT538747
 70
     0
 40
0.2
 41
1.0
 50
0.0
 71
     0
 42
2.5
  3

  4

  0
STYLE
  2
TEXT538750
 70
     0
 40
0.2
 41
1.0
 50
0.0
 71
     0
 42
2.5
  3

  4

  0
STYLE
  2
TEXT538753
 70
     0
 40
0.2
 41
1.0
 50
0.0
 71
     0
 42
2.5
  3

  4

  0
STYLE
  2
TEXT538756
 70
     0
 40
0.2
 41
1.0
 50
0.0
 71
     0
 42
2.5
  3

  4

  0
STYLE
  2
TEXT538759
 70
     0
 40
0.2
 41
1.0
 50
0.0
 71
     0
 42
2.5
  3

  4

  0
STYLE
  2
TEXT539232
 70
     0
 40
0.2
 41
1.0
 50
0.0
 71
     0
 42
2.5
  3

  4

  0
STYLE
  2
TEXT539235
 70
     0
 40
0.2
 41
1.0
 50
0.0
 71
     0
 42
2.5
  3

  4

  0
STYLE
  2
TEXT539238
 70
     0
 40
0.2
 41
1.0
 50
0.0
 71
     0
 42
2.5
  3

  4

  0
STYLE
  2
TEXT539241
 70
     0
 40
0.2
 41
1.0
 50
0.0
 71
     0
 42
2.5
  3

  4

  0
STYLE
  2
TEXT539244
 70
     0
 40
0.2
 41
1.0
 50
0.0
 71
     0
 42
2.5
  3

  4

  0
STYLE
  2
TEXT539247
 70
     0
 40
0.2
 41
1.0
 50
0.0
 71
     0
 42
2.5
  3

  4

  0
STYLE
  2
TEXT539250
 70
     0
 40
0.2
 41
1.0
 50
0.0
 71
     0
 42
2.5
  3

  4

  0
STYLE
  2
TEXT539253
 70
     0
 40
0.2
 41
1.0
 50
0.0
 71
     0
 42
2.5
  3

  4

  0
STYLE
  2
TEXT539256
 70
     0
 40
0.2
 41
1.0
 50
0.0
 71
     0
 42
2.5
  3

  4

  0
STYLE
  2
TEXT539259
 70
     0
 40
0.2
 41
1.0
 50
0.0
 71
     0
 42
2.5
  3

  4

  0
STYLE
  2
TEXT539262
 70
     0
 40
0.2
 41
1.0
 50
0.0
 71
     0
 42
2.5
  3

  4

  0
STYLE
  2
TEXT539265
 70
     0
 40
0.2
 41
1.0
 50
0.0
 71
     0
 42
2.5
  3

  4

  0
STYLE
  2
TEXT539268
 70
     0
 40
0.2
 41
1.0
 50
0.0
 71
     0
 42
2.5
  3

  4

  0
STYLE
  2
TEXT539271
 70
     0
 40
0.2
 41
1.0
 50
0.0
 71
     0
 42
2.5
  3

  4

  0
STYLE
  2
TEXT539324
 70
     0
 40
0.2
 41
1.0
 50
0.0
 71
     0
 42
2.5
  3

  4

  0
STYLE
  2
TEXT539371
 70
     0
 40
0.2
 41
1.0
 50
0.0
 71
     0
 42
2.5
  3

  4

  0
STYLE
  2
TEXT539374
 70
     0
 40
0.2
 41
1.0
 50
0.0
 71
     0
 42
2.5
  3

  4

  0
STYLE
  2
TEXT539377
 70
     0
 40
0.2
 41
1.0
 50
0.0
 71
     0
 42
2.5
  3

  4

  0
STYLE
  2
TEXT539380
 70
     0
 40
0.2
 41
1.0
 50
0.0
 71
     0
 42
2.5
  3

  4

  0
STYLE
  2
TEXT539383
 70
     0
 40
0.2
 41
1.0
 50
0.0
 71
     0
 42
2.5
  3

  4

  0
STYLE
  2
TEXT539386
 70
     0
 40
0.2
 41
1.0
 50
0.0
 71
     0
 42
2.5
  3

  4

  0
STYLE
  2
TEXT539389
 70
     0
 40
0.2
 41
1.0
 50
0.0
 71
     0
 42
2.5
  3

  4

  0
STYLE
  2
TEXT539428
 70
     0
 40
0.2
 41
1.0
 50
0.0
 71
     0
 42
2.5
  3

  4

  0
STYLE
  2
TEXT539431
 70
     0
 40
0.2
 41
1.0
 50
0.0
 71
     0
 42
2.5
  3

  4

  0
STYLE
  2
TEXT539480
 70
     0
 40
0.2
 41
1.0
 50
0.0
 71
     0
 42
2.5
  3

  4

  0
STYLE
  2
TEXT539493
 70
     0
 40
0.2
 41
1.0
 50
0.0
 71
     0
 42
2.5
  3

  4

  0
STYLE
  2
TEXT539560
 70
     0
 40
0.2
 41
1.0
 50
0.0
 71
     0
 42
2.5
  3

  4

  0
STYLE
  2
TEXT539563
 70
     0
 40
0.2
 41
1.0
 50
0.0
 71
     0
 42
2.5
  3

  4

  0
STYLE
  2
TEXT539566
 70
     0
 40
0.2
 41
1.0
 50
0.0
 71
     0
 42
2.5
  3

  4

  0
ENDTAB
  0
TABLE
  2
VIEW
 70
     0
  0
ENDTAB
  0
TABLE
  2
UCS
 70
     0
  0
ENDTAB
  0
TABLE
  2
APPID
 70
     2
  0
APPID
  2
ACAD
 70
     0
  0
APPID
  2
ENCORE_SOFTWARE_VIACAD
 70
     0
  0
ENDTAB
  0
TABLE
  2
DIMSTYLE
 70
     1
  0
DIMSTYLE
  2
ISO-25
 70
     0
  3

  4

  5

  6

  7

 40
1.0
 41
2.5
 42
0.625
 43
3.75
 44
1.25
 45
0.0
 46
0.0
 47
0.0
 48
0.0
140
2.5
141
2.5
142
0.0
143
0.03937007874016
144
1.0
145
0.0
146
1.0
147
0.625
 71
     0
 72
     0
 73
     0
 74
     0
 75
     0
 76
     0
 77
     1
 78
     8
170
     0
171
     3
172
     1
173
     0
174
     0
175
     0
176
     0
177
     0
178
     0
  0
ENDTAB
  0
ENDSEC
  0
SECTION
  2
BLOCKS
  0
BLOCK
  8
0
  2
$MODEL_SPACE
 70
     0
 10
0.0
 20
0.0
 30
0.0
  3
$MODEL_SPACE
  1

  0
ENDBLK
  5
21
  8
0
  0
BLOCK
 67
     1
  8
0
  2
$PAPER_SPACE
 70
     0
 10
0.0
 20
0.0
 30
0.0
  3
$PAPER_SPACE
  1

  0
ENDBLK
  5
1D
 67
     1
  8
0
  0
ENDSEC
  0
SECTION
  2
ENTITIES
  0
LINE
  5
77
  8
LAYER1
 62
    18
 10
0.0
 20
0.0
 30
0.0
 11
150.0
 21
0.0
 31
0.0
  0
LINE
  5
78
  8
LAYER1
 62
    18
 10
0.0
 20
100.0
 30
0.0
 11
0.0
 21
0.0
 31
0.0
  0
CIRCLE
  5
79
  8
LAYER1
 62
    18
 10
141.4999999999998
 20
72.94984290637886
 30
0.0
 40
2.749999999999982
  0
LINE
  5
7A
  8
LAYER1
 62
    18
 10
146.000000673238
 20
72.94984590034039
 30
0.0
 11
143.7499987182057
 21
69.05273033599407
 31
0.0
  0
LINE
  5
7B
  8
LAYER1
 62
    18
 10
143.7499987182057
 20
69.05273033599407
 30
0.0
 11
139.2500008639729
 21
69.05273033599407
 31
0.0
  0
LINE
  5
7C
  8
LAYER1
 62
    18
 10
139.2500008639729
 20
69.05273033599407
 30
0.0
 11
136.9999989089405
 21
72.94984590034039
 31
0.0
  0
LINE
  5
7D
  8
LAYER1
 62
    18
 10
136.9999989089405
 20
72.94984590034039
 30
0.0
 11
139.2500008639729
 21
76.84695540885481
 31
0.0
  0
LINE
  5
7E
  8
LAYER1
 62
    18
 10
139.2500008639729
 20
76.84695540885481
 30
0.0
 11
143.7499987182057
 21
76.84695540885481
 31
0.0
  0
LINE
  5
7F
  8
LAYER1
 62
    18
 10
143.7499987182057
 20
76.84695540885481
 30
0.0
 11
146.000000673238
 21
72.94984590034039
 31
0.0
  0
CIRCLE
  5
80
  8
LAYER1
 62
    18
 10
141.4999999999998
 20
72.94984290637886
 30
0.0
 40
1.749999999999974
  0
TEXT
  5
82
  8
LAYER1
 62
    18
 10
101.5972420261246
 20
45.09888906326179
 30
0.0
 40
1.789999961853027
  1
A
  7
TEXT538354
  0
TEXT
  5
84
  8
LAYER1
 62
    18
 10
114.5972420261245
 20
45.09888906326179
 30
0.0
 40
1.789999961853027
  1
D
  7
TEXT538357
  0
TEXT
  5
86
  8
LAYER1
 62
    18
 10
127.5972420261246
 20
45.06638741340522
 30
0.0
 40
1.789999961853027
  1
S
  7
TEXT538360
  0
TEXT
  5
88
  8
LAYER1
 62
    18
 10
140.5972420261243
 20
45.09888906326179
 30
0.0
 40
1.789999961853027
  1
R
  7
TEXT538363
  0
CIRCLE
  5
89
  8
LAYER1
 62
    18
 10
102.5000197834547
 20
52.79999999999977
 30
0.0
 40
2.999999999999979
  0
LINE
  5
8A
  8
LAYER1
 62
    18
 10
102.1000298934276
 20
54.27321238930523
 30
0.0
 11
102.9000298934276
 21
54.27321238930523
 31
0.0
  0
LINE
  5
8B
  8
LAYER1
 62
    18
 10
102.9000298934276
 20
54.27321238930523
 30
0.0
 11
102.9000298934276
 21
55.77321238930523
 31
0.0
  0
LINE
  5
8C
  8
LAYER1
 62
    18
 10
102.1000298934276
 20
54.27321238930523
 30
0.0
 11
102.1000298934276
 21
55.77321238930523
 31
0.0
  0
CIRCLE
  5
8D
  8
LAYER1
 62
    18
 10
115.5000197834546
 20
52.79999999999977
 30
0.0
 40
3.000000000000009
  0
LINE
  5
8E
  8
LAYER1
 62
    18
 10
115.1000298934275
 20
54.27321238930523
 30
0.0
 11
115.9000298934275
 21
54.27321238930523
 31
0.0
  0
LINE
  5
8F
  8
LAYER1
 62
    18
 10
115.9000298934275
 20
54.27321238930523
 30
0.0
 11
115.9000298934275
 21
55.77321238930523
 31
0.0
  0
LINE
  5
90
  8
LAYER1
 62
    18
 10
115.1000298934275
 20
54.27321238930523
 30
0.0
 11
115.1000298934275
 21
55.77321238930523
 31
0.0
  0
CIRCLE
  5
91
  8
LAYER1
 62
    18
 10
128.5000197834547
 20
52.79999999999977
 30
0.0
 40
2.999999999999959
  0
LINE
  5
92
  8
LAYER1
 62
    18
 10
128.1000298934275
 20
54.27321238930523
 30
0.0
 11
128.9000298934275
 21
54.27321238930523
 31
0.0
  0
LINE
  5
93
  8
LAYER1
 62
    18
 10
128.9000298934275
 20
54.27321238930523
 30
0.0
 11
128.9000298934275
 21
55.77321238930523
 31
0.0
  0
LINE
  5
94
  8
LAYER1
 62
    18
 10
128.1000298934275
 20
54.27321238930523
 30
0.0
 11
128.1000298934275
 21
55.77321238930523
 31
0.0
  0
CIRCLE
  5
95
  8
LAYER1
 62
    18
 10
141.5000197834546
 20
52.79999999999977
 30
0.0
 40
2.999999999999999
  0
LINE
  5
96
  8
LAYER1
 62
    18
 10
141.1000298934275
 20
54.27321238930523
 30
0.0
 11
141.9000298934275
 21
54.27321238930523
 31
0.0
  0
LINE
  5
97
  8
LAYER1
 62
    18
 10
141.9000298934275
 20
54.27321238930523
 30
0.0
 11
141.9000298934275
 21
55.77321238930523
 31
0.0
  0
LINE
  5
98
  8
LAYER1
 62
    18
 10
141.1000298934275
 20
54.27321238930523
 30
0.0
 11
141.1000298934275
 21
55.77321238930523
 31
0.0
  0
LINE
  5
99
  8
LAYER1
  6
DOT
 62
    18
 10
4.49999999999998
 20
86.08207745989333
 30
0.0
 11
145.5
 21
86.08207745989333
 31
0.0
  0
LINE
  5
9A
  8
LAYER1
  6
DOT
 62
    18
 10
145.5
 20
86.08207745989333
 30
0.0
 11
145.5
 21
93.08207745989334
 31
0.0
  0
LINE
  5
9B
  8
LAYER1
  6
DOT
 62
    18
 10
145.5
 20
93.08207745989334
 30
0.0
 11
4.49999999999998
 21
93.08207745989334
 31
0.0
  0
LINE
  5
9C
  8
LAYER1
  6
DOT
 62
    18
 10
4.49999999999998
 20
93.08207745989334
 30
0.0
 11
4.49999999999998
 21
86.08207745989333
 31
0.0
  0
LINE
  5
9D
  8
LAYER1
 62
    18
 10
0.0
 20
100.0
 30
0.0
 11
150.0
 21
100.0
 31
0.0
  0
CIRCLE
  5
9E
  8
LAYER1
 62
    18
 10
74.49999999999966
 20
32.79999999999978
 30
0.0
 40
3.000000000000042
  0
LINE
  5
9F
  8
LAYER1
 62
    18
 10
74.10001010997253
 20
34.27321238930522
 30
0.0
 11
74.90001010997254
 21
34.27321238930522
 31
0.0
  0
LINE
  5
A0
  8
LAYER1
 62
    18
 10
74.90001010997254
 20
34.27321238930522
 30
0.0
 11
74.90001010997254
 21
35.77321238930524
 31
0.0
  0
LINE
  5
A1
  8
LAYER1
 62
    18
 10
74.10001010997253
 20
34.27321238930522
 30
0.0
 11
74.10001010997253
 21
35.77321238930524
 31
0.0
  0
TEXT
  5
A3
  8
LAYER1
 62
    18
 10
72.48611115672495
 20
25.09890739553241
 30
0.0
 40
1.789999961853027
  1
PW
  7
TEXT538428
  0
TEXT
  5
A5
  8
LAYER1
 62
    18
 10
4.027777856422754
 20
45.06639015310075
 30
0.0
 40
1.789999961853027
  1
VCO1
  7
TEXT538431
  0
CIRCLE
  5
A6
  8
LAYER1
 62
    18
 10
7.499999999999992
 20
52.79999999999977
 30
0.0
 40
3.000000000000043
  0
LINE
  5
A7
  8
LAYER1
 62
    18
 10
7.100010109972868
 20
54.27321238930521
 30
0.0
 11
7.900010109972866
 21
54.27321238930521
 31
0.0
  0
LINE
  5
A8
  8
LAYER1
 62
    18
 10
7.900010109972866
 20
54.27321238930521
 30
0.0
 11
7.900010109972866
 21
55.77321238930523
 31
0.0
  0
LINE
  5
A9
  8
LAYER1
 62
    18
 10
7.100010109972868
 20
54.27321238930521
 30
0.0
 11
7.100010109972868
 21
55.77321238930523
 31
0.0
  0
CIRCLE
  5
AA
  8
LAYER1
 62
    18
 10
7.499999999999987
 20
32.79999999999978
 30
0.0
 40
3.000000000000024
  0
LINE
  5
AB
  8
LAYER1
 62
    18
 10
7.10001010997284
 20
34.27321238930521
 30
0.0
 11
7.900010109972861
 21
34.27321238930521
 31
0.0
  0
LINE
  5
AC
  8
LAYER1
 62
    18
 10
7.900010109972861
 20
34.27321238930521
 30
0.0
 11
7.900010109972861
 21
35.77321238930524
 31
0.0
  0
LINE
  5
AD
  8
LAYER1
 62
    18
 10
7.10001010997284
 20
34.27321238930521
 30
0.0
 11
7.10001010997284
 21
35.77321238930524
 31
0.0
  0
TEXT
  5
AF
  8
LAYER1
 62
    18
 10
5.486111156725213
 20
23.67912813353853
 30
0.0
 40
1.789999961853027
  1
FM
  7
TEXT538454
  0
TEXT
  5
B1
  8
LAYER1
 62
    18
 10
3.402777870578884
 20
42.93936448744755
 30
0.0
 40
1.789999961853027
  1
LEVEL
  7
TEXT538457
  0
TEXT
  5
B3
  8
LAYER1
 62
    18
 10
55.61111119919342
 20
45.06639015310075
 30
0.0
 40
1.789999961853027
  1
NOISE
  7
TEXT538460
  0
CIRCLE
  5
B4
  8
LAYER1
 62
    18
 10
59.49999999999988
 20
52.79999999999977
 30
0.0
 40
3.000000000000044
  0
LINE
  5
B5
  8
LAYER1
 62
    18
 10
59.10001010997276
 20
54.27321238930521
 30
0.0
 11
59.90001010997275
 21
54.27321238930521
 31
0.0
  0
LINE
  5
B6
  8
LAYER1
 62
    18
 10
59.90001010997275
 20
54.27321238930521
 30
0.0
 11
59.90001010997275
 21
55.77321238930523
 31
0.0
  0
LINE
  5
B7
  8
LAYER1
 62
    18
 10
59.10001010997276
 20
54.27321238930521
 30
0.0
 11
59.10001010997276
 21
55.77321238930523
 31
0.0
  0
CIRCLE
  5
B8
  8
LAYER1
 62
    18
 10
128.5000197834547
 20
12.79999999999977
 30
0.0
 40
2.749999999999986
  0
LINE
  5
B9
  8
LAYER1
 62
    18
 10
133.0000204566929
 20
12.8000029939613
 30
0.0
 11
130.7500185016605
 21
8.902887429614985
 31
0.0
  0
LINE
  5
BA
  8
LAYER1
 62
    18
 10
130.7500185016605
 20
8.902887429614985
 30
0.0
 11
126.2500206474277
 21
8.902887429614985
 31
0.0
  0
LINE
  5
BB
  8
LAYER1
 62
    18
 10
126.2500206474277
 20
8.902887429614985
 30
0.0
 11
124.0000186923954
 21
12.8000029939613
 31
0.0
  0
LINE
  5
BC
  8
LAYER1
 62
    18
 10
124.0000186923954
 20
12.8000029939613
 30
0.0
 11
126.2500206474277
 21
16.69711250247571
 31
0.0
  0
LINE
  5
BD
  8
LAYER1
 62
    18
 10
126.2500206474277
 20
16.69711250247571
 30
0.0
 11
130.7500185016605
 21
16.69711250247571
 31
0.0
  0
LINE
  5
BE
  8
LAYER1
 62
    18
 10
130.7500185016605
 20
16.69711250247571
 30
0.0
 11
133.0000204566929
 21
12.8000029939613
 31
0.0
  0
CIRCLE
  5
BF
  8
LAYER1
 62
    18
 10
128.5000197834547
 20
12.79999999999977
 30
0.0
 40
1.749999999999982
  0
TEXT
  5
C1
  8
LAYER1
 62
    18
 10
125.0277974309669
 20
5.12871936629188
 30
0.0
 40
1.789999961853027
  1
GATE
  7
TEXT538491
  0
TEXT
  5
C3
  8
LAYER1
 62
    18
 10
71.09722229929423
 20
5.161219247924695
 30
0.0
 40
1.789999961853027
  1
RATE
  7
TEXT538494
  0
CIRCLE
  5
C4
  8
LAYER1
 62
    18
 10
74.49999999999989
 20
12.79999999999999
 30
0.0
 40
3.000000000000036
  0
LINE
  5
C5
  8
LAYER1
 62
    18
 10
74.10001010997276
 20
14.27321238930544
 30
0.0
 11
74.90001010997275
 21
14.27321238930544
 31
0.0
  0
LINE
  5
C6
  8
LAYER1
 62
    18
 10
74.90001010997275
 20
14.27321238930544
 30
0.0
 11
74.90001010997275
 21
15.77321238930545
 31
0.0
  0
LINE
  5
C7
  8
LAYER1
 62
    18
 10
74.10001010997276
 20
14.27321238930544
 30
0.0
 11
74.10001010997276
 21
15.77321238930545
 31
0.0
  0
TEXT
  5
C9
  8
LAYER1
 62
    18
 10
4.027777856422772
 20
65.06638757818007
 30
0.0
 40
1.789999961853027
  1
PITCH
  7
TEXT538507
  0
CIRCLE
  5
CA
  8
LAYER1
 62
    18
 10
7.499999999999987
 20
72.79999999999973
 30
0.0
 40
3.000000000000021
  0
CIRCLE
  5
CB
  8
LAYER1
 62
    18
 10
7.499999999999987
 20
72.79999999999973
 30
0.0
 40
3.000000000000021
  0
LINE
  5
CC
  8
LAYER1
 62
    18
 10
7.100010109972863
 20
74.2732123893052
 30
0.0
 11
7.900010109972861
 21
74.2732123893052
 31
0.0
  0
LINE
  5
CD
  8
LAYER1
 62
    18
 10
7.900010109972861
 20
74.2732123893052
 30
0.0
 11
7.900010109972861
 21
75.77321238930521
 31
0.0
  0
LINE
  5
CE
  8
LAYER1
 62
    18
 10
7.100010109972863
 20
74.2732123893052
 30
0.0
 11
7.100010109972863
 21
75.77321238930521
 31
0.0
  0
CIRCLE
  5
CF
  8
LAYER1
 62
    18
 10
87.49999999999969
 20
32.79999999999978
 30
0.0
 40
3.000000000000016
  0
LINE
  5
D0
  8
LAYER1
 62
    18
 10
87.10001010997256
 20
34.27321238930522
 30
0.0
 11
87.90001010997256
 21
34.27321238930522
 31
0.0
  0
LINE
  5
D1
  8
LAYER1
 62
    18
 10
87.90001010997256
 20
34.27321238930522
 30
0.0
 11
87.90001010997256
 21
35.77321238930524
 31
0.0
  0
LINE
  5
D2
  8
LAYER1
 62
    18
 10
87.10001010997256
 20
34.27321238930522
 30
0.0
 11
87.10001010997256
 21
35.77321238930524
 31
0.0
  0
TEXT
  5
D4
  8
LAYER1
 62
    18
 10
84.44444451365175
 20
25.09890739553241
 30
0.0
 40
1.789999961853027
  1
PWM
  7
TEXT538532
  0
TEXT
  5
D6
  8
LAYER1
 62
    18
 10
4.027787966395658
 20
78.72500004246805
 30
0.0
 40
1.789999961853027
  1
VCO1
  7
TEXT538535
  0
TEXT
  5
D8
  8
LAYER1
 62
    18
 10
100.0000000566243
 20
65.06639103563036
 30
0.0
 40
1.789999961853027
  1
RES
  7
TEXT538538
  0
CIRCLE
  5
D9
  8
LAYER1
 62
    18
 10
102.4999999999999
 20
72.94984290637886
 30
0.0
 40
3.000000000000034
  0
LINE
  5
DA
  8
LAYER1
 62
    18
 10
102.1000101099728
 20
74.42305529568429
 30
0.0
 11
102.9000101099728
 21
74.42305529568429
 31
0.0
  0
LINE
  5
DB
  8
LAYER1
 62
    18
 10
102.9000101099728
 20
74.42305529568429
 30
0.0
 11
102.9000101099728
 21
75.92305529568432
 31
0.0
  0
LINE
  5
DC
  8
LAYER1
 62
    18
 10
102.1000101099728
 20
74.42305529568429
 30
0.0
 11
102.1000101099728
 21
75.92305529568432
 31
0.0
  0
TEXT
  5
DE
  8
LAYER1
 62
    18
 10
5.694444276429253
 20
5.128719869004723
 30
0.0
 40
1.789999961853027
  1
CV
  7
TEXT538551
  0
TEXT
  5
E0
  8
LAYER1
 62
    18
 10
110.4305556703772
 20
65.06639103563036
 30
0.0
 40
1.789999961853027
  1
CUTOFF
  7
TEXT538554
  0
CIRCLE
  5
E1
  8
LAYER1
 62
    18
 10
115.4999999999999
 20
72.94984290637886
 30
0.0
 40
3.000000000000034
  0
LINE
  5
E2
  8
LAYER1
 62
    18
 10
115.1000101099728
 20
74.42305529568429
 30
0.0
 11
115.9000101099728
 21
74.42305529568429
 31
0.0
  0
LINE
  5
E3
  8
LAYER1
 62
    18
 10
115.9000101099728
 20
74.42305529568429
 30
0.0
 11
115.9000101099728
 21
75.92305529568432
 31
0.0
  0
LINE
  5
E4
  8
LAYER1
 62
    18
 10
115.1000101099728
 20
74.42305529568429
 30
0.0
 11
115.1000101099728
 21
75.92305529568432
 31
0.0
  0
CIRCLE
  5
E5
  8
LAYER1
 62
    18
 10
141.5000197834546
 20
12.8000029939613
 30
0.0
 40
3.500000000000019
  0
POLYLINE
  5
E6
  8
LAYER1
 62
    18
 10
0.0
 20
0.0
 30
0.0
 66
     1
 70
     8
  0
VERTEX
  5
E7
  8
LAYER1
 62
    18
 10
145.0000152587891
 20
12.80000305175781
 30
0.0
 70
    32
  0
VERTEX
  5
E8
  8
LAYER1
 62
    18
 10
144.9763488769531
 20
13.20632839202881
 30
0.0
 70
    32
  0
VERTEX
  5
E9
  8
LAYER1
 62
    18
 10
144.9056701660156
 20
13.60715866088867
 30
0.0
 70
    32
  0
VERTEX
  5
EA
  8
LAYER1
 62
    18
 10
144.7889404296875
 20
13.99707317352295
 30
0.0
 70
    32
  0
VERTEX
  5
EB
  8
LAYER1
 62
    18
 10
144.6277313232422
 20
14.37080001831055
 30
0.0
 70
    32
  0
VERTEX
  5
EC
  8
LAYER1
 62
    18
 10
144.4242248535156
 20
14.72328472137451
 30
0.0
 70
    32
  0
VERTEX
  5
ED
  8
LAYER1
 62
    18
 10
144.1811828613281
 20
15.04975986480713
 30
0.0
 70
    32
  0
VERTEX
  5
EE
  8
LAYER1
 62
    18
 10
143.9018707275391
 20
15.34581089019775
 30
0.0
 70
    32
  0
VERTEX
  5
EF
  8
LAYER1
 62
    18
 10
143.5900726318359
 20
15.60743427276611
 30
0.0
 70
    32
  0
VERTEX
  5
F0
  8
LAYER1
 62
    18
 10
143.2500152587891
 20
15.83109188079834
 30
0.0
 70
    32
  0
VERTEX
  5
F1
  8
LAYER1
 62
    18
 10
142.8862915039062
 20
16.01375961303711
 30
0.0
 70
    32
  0
VERTEX
  5
F2
  8
LAYER1
 62
    18
 10
142.5038299560547
 20
16.1529655456543
 30
0.0
 70
    32
  0
VERTEX
  5
F3
  8
LAYER1
 62
    18
 10
142.1077880859375
 20
16.24682998657227
 30
0.0
 70
    32
  0
VERTEX
  5
F4
  8
LAYER1
 62
    18
 10
141.7035217285156
 20
16.29408073425293
 30
0.0
 70
    32
  0
VERTEX
  5
F5
  8
LAYER1
 62
    18
 10
141.2965087890625
 20
16.29408073425293
 30
0.0
 70
    32
  0
VERTEX
  5
F6
  8
LAYER1
 62
    18
 10
140.8922576904297
 20
16.24682998657227
 30
0.0
 70
    32
  0
VERTEX
  5
F7
  8
LAYER1
 62
    18
 10
140.4962158203125
 20
16.1529655456543
 30
0.0
 70
    32
  0
VERTEX
  5
F8
  8
LAYER1
 62
    18
 10
140.1137390136719
 20
16.01375961303711
 30
0.0
 70
    32
  0
VERTEX
  5
F9
  8
LAYER1
 62
    18
 10
139.7500152587891
 20
15.83109188079834
 30
0.0
 70
    32
  0
VERTEX
  5
FA
  8
LAYER1
 62
    18
 10
139.4099578857422
 20
15.60743427276611
 30
0.0
 70
    32
  0
VERTEX
  5
FB
  8
LAYER1
 62
    18
 10
139.0981750488281
 20
15.34581089019775
 30
0.0
 70
    32
  0
VERTEX
  5
FC
  8
LAYER1
 62
    18
 10
138.8188629150391
 20
15.04975986480713
 30
0.0
 70
    32
  0
VERTEX
  5
FD
  8
LAYER1
 62
    18
 10
138.5758056640625
 20
14.72328472137451
 30
0.0
 70
    32
  0
VERTEX
  5
FE
  8
LAYER1
 62
    18
 10
138.3722991943359
 20
14.37080001831055
 30
0.0
 70
    32
  0
VERTEX
  5
FF
  8
LAYER1
 62
    18
 10
138.2110900878906
 20
13.99707317352295
 30
0.0
 70
    32
  0
VERTEX
  5
100
  8
LAYER1
 62
    18
 10
138.0943603515625
 20
13.60715866088867
 30
0.0
 70
    32
  0
VERTEX
  5
101
  8
LAYER1
 62
    18
 10
138.023681640625
 20
13.20632839202881
 30
0.0
 70
    32
  0
VERTEX
  5
102
  8
LAYER1
 62
    18
 10
138.0000152587891
 20
12.80000305175781
 30
0.0
 70
    32
  0
VERTEX
  5
103
  8
LAYER1
 62
    18
 10
138.023681640625
 20
12.39367771148682
 30
0.0
 70
    32
  0
VERTEX
  5
104
  8
LAYER1
 62
    18
 10
138.0943603515625
 20
11.99284744262695
 30
0.0
 70
    32
  0
VERTEX
  5
105
  8
LAYER1
 62
    18
 10
138.2110900878906
 20
11.60293292999268
 30
0.0
 70
    32
  0
VERTEX
  5
106
  8
LAYER1
 62
    18
 10
138.3722991943359
 20
11.22920608520508
 30
0.0
 70
    32
  0
VERTEX
  5
107
  8
LAYER1
 62
    18
 10
138.5758056640625
 20
10.87672138214111
 30
0.0
 70
    32
  0
VERTEX
  5
108
  8
LAYER1
 62
    18
 10
138.8188629150391
 20
10.5502462387085
 30
0.0
 70
    32
  0
VERTEX
  5
109
  8
LAYER1
 62
    18
 10
139.0981750488281
 20
10.25419521331787
 30
0.0
 70
    32
  0
VERTEX
  5
10A
  8
LAYER1
 62
    18
 10
139.4099578857422
 20
9.992571830749512
 30
0.0
 70
    32
  0
VERTEX
  5
10B
  8
LAYER1
 62
    18
 10
139.7500152587891
 20
9.768914222717285
 30
0.0
 70
    32
  0
VERTEX
  5
10C
  8
LAYER1
 62
    18
 10
140.1137390136719
 20
9.586246490478516
 30
0.0
 70
    32
  0
VERTEX
  5
10D
  8
LAYER1
 62
    18
 10
140.4962158203125
 20
9.447039604187012
 30
0.0
 70
    32
  0
VERTEX
  5
10E
  8
LAYER1
 62
    18
 10
140.8922576904297
 20
9.35317611694336
 30
0.0
 70
    32
  0
VERTEX
  5
10F
  8
LAYER1
 62
    18
 10
141.2965087890625
 20
9.305924415588379
 30
0.0
 70
    32
  0
VERTEX
  5
110
  8
LAYER1
 62
    18
 10
141.7035217285156
 20
9.305924415588379
 30
0.0
 70
    32
  0
VERTEX
  5
111
  8
LAYER1
 62
    18
 10
142.1077880859375
 20
9.35317611694336
 30
0.0
 70
    32
  0
VERTEX
  5
112
  8
LAYER1
 62
    18
 10
142.5038299560547
 20
9.447039604187012
 30
0.0
 70
    32
  0
VERTEX
  5
113
  8
LAYER1
 62
    18
 10
142.8862915039062
 20
9.586246490478516
 30
0.0
 70
    32
  0
VERTEX
  5
114
  8
LAYER1
 62
    18
 10
143.2500152587891
 20
9.768914222717285
 30
0.0
 70
    32
  0
VERTEX
  5
115
  8
LAYER1
 62
    18
 10
143.5900726318359
 20
9.992571830749512
 30
0.0
 70
    32
  0
VERTEX
  5
116
  8
LAYER1
 62
    18
 10
143.9018707275391
 20
10.25419521331787
 30
0.0
 70
    32
  0
VERTEX
  5
117
  8
LAYER1
 62
    18
 10
144.1811828613281
 20
10.5502462387085
 30
0.0
 70
    32
  0
VERTEX
  5
118
  8
LAYER1
 62
    18
 10
144.4242248535156
 20
10.87672138214111
 30
0.0
 70
    32
  0
VERTEX
  5
119
  8
LAYER1
 62
    18
 10
144.6277313232422
 20
11.22920608520508
 30
0.0
 70
    32
  0
VERTEX
  5
11A
  8
LAYER1
 62
    18
 10
144.7889404296875
 20
11.60293292999268
 30
0.0
 70
    32
  0
VERTEX
  5
11B
  8
LAYER1
 62
    18
 10
144.9056701660156
 20
11.99284744262695
 30
0.0
 70
    32
  0
VERTEX
  5
11C
  8
LAYER1
 62
    18
 10
144.9763488769531
 20
12.39367771148682
 30
0.0
 70
    32
  0
VERTEX
  5
11D
  8
LAYER1
 62
    18
 10
145.0000152587891
 20
12.80000305175781
 30
0.0
 70
    32
  0
SEQEND
  5
11E
  8
LAYER1
 62
    18
  0
TEXT
  5
120
  8
LAYER1
 62
    18
 10
71.99998027316954
 20
65.06636904663524
 30
0.0
 40
1.789999961853027
  1
LFO
  7
TEXT538571
  0
CIRCLE
  5
121
  8
LAYER1
 62
    18
 10
74.49998021654513
 20
72.79997889353426
 30
0.0
 40
3.000000000000044
  0
LINE
  5
122
  8
LAYER1
 62
    18
 10
74.09999032651801
 20
74.2731912828397
 30
0.0
 11
74.89999032651801
 21
74.2731912828397
 31
0.0
  0
LINE
  5
123
  8
LAYER1
 62
    18
 10
74.89999032651801
 20
74.2731912828397
 30
0.0
 11
74.89999032651801
 21
75.77319128283972
 31
0.0
  0
LINE
  5
124
  8
LAYER1
 62
    18
 10
74.09999032651801
 20
74.2731912828397
 30
0.0
 11
74.09999032651801
 21
75.77319128283972
 31
0.0
  0
TEXT
  5
126
  8
LAYER1
 62
    18
 10
85.00000005662426
 20
65.06636904663524
 30
0.0
 40
1.789999961853027
  1
EG2
  7
TEXT538584
  0
CIRCLE
  5
127
  8
LAYER1
 62
    18
 10
87.49999999999986
 20
72.79997889353426
 30
0.0
 40
3.000000000000044
  0
LINE
  5
128
  8
LAYER1
 62
    18
 10
87.10001010997274
 20
74.2731912828397
 30
0.0
 11
87.90001010997274
 21
74.2731912828397
 31
0.0
  0
LINE
  5
129
  8
LAYER1
 62
    18
 10
87.90001010997274
 20
74.2731912828397
 30
0.0
 11
87.90001010997274
 21
75.77319128283972
 31
0.0
  0
LINE
  5
12A
  8
LAYER1
 62
    18
 10
87.10001010997274
 20
74.2731912828397
 30
0.0
 11
87.10001010997274
 21
75.77319128283972
 31
0.0
  0
CIRCLE
  5
12B
  8
LAYER1
 62
    18
 10
7.499999999999987
 20
12.79999999999981
 30
0.0
 40
2.749999999999976
  0
LINE
  5
12C
  8
LAYER1
 62
    18
 10
12.00000067323816
 20
12.80000299396134
 30
0.0
 11
9.749998718205802
 21
8.902887429615028
 31
0.0
  0
LINE
  5
12D
  8
LAYER1
 62
    18
 10
9.749998718205802
 20
8.902887429615028
 30
0.0
 11
5.250000863973008
 21
8.902887429615028
 31
0.0
  0
LINE
  5
12E
  8
LAYER1
 62
    18
 10
5.250000863973008
 20
8.902887429615028
 30
0.0
 11
2.999998908940659
 21
12.80000299396134
 31
0.0
  0
LINE
  5
12F
  8
LAYER1
 62
    18
 10
2.999998908940659
 20
12.80000299396134
 30
0.0
 11
5.250000863973008
 21
16.69711250247573
 31
0.0
  0
LINE
  5
130
  8
LAYER1
 62
    18
 10
5.250000863973008
 20
16.69711250247573
 30
0.0
 11
9.749998718205802
 21
16.69711250247573
 31
0.0
  0
LINE
  5
131
  8
LAYER1
 62
    18
 10
9.749998718205802
 20
16.69711250247573
 30
0.0
 11
12.00000067323816
 21
12.80000299396134
 31
0.0
  0
CIRCLE
  5
132
  8
LAYER1
 62
    18
 10
7.499999999999987
 20
12.79999999999981
 30
0.0
 40
1.749999999999972
  0
TEXT
  5
134
  8
LAYER1
 62
    18
 10
138.8611111708812
 20
65.06638761692763
 30
0.0
 40
1.789999961853027
  1
OUT
  7
TEXT538615
  0
CIRCLE
  5
135
  8
LAYER1
 62
    18
 10
74.49999999999989
 20
20.59999999999999
 30
0.0
 40
1.500000000000007
  0
TEXT
  5
137
  8
LAYER1
 62
    18
 10
42.68055564206498
 20
5.128719869005105
 30
0.0
 40
1.789999961853027
  1
GLIDE
  7
TEXT538620
  0
CIRCLE
  5
138
  8
LAYER1
 62
    18
 10
46.49999999999993
 20
12.8
 30
0.0
 40
3.000000000000036
  0
LINE
  5
139
  8
LAYER1
 62
    18
 10
46.1000101099728
 20
14.27321238930545
 30
0.0
 11
46.9000101099728
 21
14.27321238930545
 31
0.0
  0
LINE
  5
13A
  8
LAYER1
 62
    18
 10
46.9000101099728
 20
14.27321238930545
 30
0.0
 11
46.9000101099728
 21
15.77321238930547
 31
0.0
  0
LINE
  5
13B
  8
LAYER1
 62
    18
 10
46.1000101099728
 20
14.27321238930545
 30
0.0
 11
46.1000101099728
 21
15.77321238930547
 31
0.0
  0
TEXT
  5
13D
  8
LAYER1
 62
    18
 10
30.02777785642276
 20
65.0663875781801
 30
0.0
 40
1.789999961853027
  1
PITCH
  7
TEXT538633
  0
CIRCLE
  5
13E
  8
LAYER1
 62
    18
 10
33.49999999999997
 20
72.79999999999976
 30
0.0
 40
3.000000000000024
  0
CIRCLE
  5
13F
  8
LAYER1
 62
    18
 10
33.49999999999997
 20
72.79999999999976
 30
0.0
 40
3.000000000000024
  0
LINE
  5
140
  8
LAYER1
 62
    18
 10
33.10001010997285
 20
74.27321238930521
 30
0.0
 11
33.90001010997285
 21
74.27321238930521
 31
0.0
  0
LINE
  5
141
  8
LAYER1
 62
    18
 10
33.90001010997285
 20
74.27321238930521
 30
0.0
 11
33.90001010997285
 21
75.77321238930524
 31
0.0
  0
LINE
  5
142
  8
LAYER1
 62
    18
 10
33.10001010997285
 20
74.27321238930521
 30
0.0
 11
33.10001010997285
 21
75.77321238930524
 31
0.0
  0
TEXT
  5
144
  8
LAYER1
 62
    18
 10
30.02778796639565
 20
78.72500004246807
 30
0.0
 40
1.789999961853027
  1
VCO2
  7
TEXT538648
  0
LINE
  5
145
  8
LAYER1
 62
    18
 10
150.0
 20
100.0
 30
0.0
 11
150.0
 21
0.0
 31
0.0
  0
CIRCLE
  5
146
  8
LAYER1
 62
    18
 10
33.49999999999996
 20
52.79999999999977
 30
0.0
 40
3.00000000000004
  0
LINE
  5
147
  8
LAYER1
 62
    18
 10
33.10001010997283
 20
54.27321238930521
 30
0.0
 11
33.90001010997283
 21
54.27321238930521
 31
0.0
  0
LINE
  5
148
  8
LAYER1
 62
    18
 10
33.90001010997283
 20
54.27321238930521
 30
0.0
 11
33.90001010997283
 21
55.77321238930523
 31
0.0
  0
LINE
  5
149
  8
LAYER1
 62
    18
 10
33.10001010997283
 20
54.27321238930521
 30
0.0
 11
33.10001010997283
 21
55.77321238930523
 31
0.0
  0
TEXT
  5
14B
  8
LAYER1
 62
    18
 10
30.02777785642283
 20
45.06639015310075
 30
0.0
 40
1.789999961853027
  1
VCO2
  7
TEXT538663
  0
TEXT
  5
14D
  8
LAYER1
 62
    18
 10
101.5972420261246
 20
25.58278692980254
 30
0.0
 40
1.789999961853027
  1
A
  7
TEXT538666
  0
TEXT
  5
14F
  8
LAYER1
 62
    18
 10
114.5972420261245
 20
25.58278692980254
 30
0.0
 40
1.789999961853027
  1
D
  7
TEXT538669
  0
TEXT
  5
151
  8
LAYER1
 62
    18
 10
127.5972420261246
 20
25.58278692980254
 30
0.0
 40
1.789999961853027
  1
S
  7
TEXT538672
  0
TEXT
  5
153
  8
LAYER1
 62
    18
 10
140.5972420261243
 20
25.58278692980253
 30
0.0
 40
1.789999961853027
  1
R
  7
TEXT538675
  0
CIRCLE
  5
154
  8
LAYER1
 62
    18
 10
102.5000197834547
 20
32.79999999999976
 30
0.0
 40
2.999999999999989
  0
LINE
  5
155
  8
LAYER1
 62
    18
 10
102.1000298934276
 20
34.27321238930524
 30
0.0
 11
102.9000298934276
 21
34.27321238930524
 31
0.0
  0
LINE
  5
156
  8
LAYER1
 62
    18
 10
102.9000298934276
 20
34.27321238930524
 30
0.0
 11
102.9000298934276
 21
35.77321238930524
 31
0.0
  0
LINE
  5
157
  8
LAYER1
 62
    18
 10
102.1000298934276
 20
34.27321238930524
 30
0.0
 11
102.1000298934276
 21
35.77321238930524
 31
0.0
  0
CIRCLE
  5
158
  8
LAYER1
 62
    18
 10
115.5000197834546
 20
32.79999999999976
 30
0.0
 40
3.000000000000029
  0
LINE
  5
159
  8
LAYER1
 62
    18
 10
115.1000298934275
 20
34.27321238930524
 30
0.0
 11
115.9000298934275
 21
34.27321238930524
 31
0.0
  0
LINE
  5
15A
  8
LAYER1
 62
    18
 10
115.9000298934275
 20
34.27321238930524
 30
0.0
 11
115.9000298934275
 21
35.77321238930524
 31
0.0
  0
LINE
  5
15B
  8
LAYER1
 62
    18
 10
115.1000298934275
 20
34.27321238930524
 30
0.0
 11
115.1000298934275
 21
35.77321238930524
 31
0.0
  0
CIRCLE
  5
15C
  8
LAYER1
 62
    18
 10
128.5000197834547
 20
32.79999999999976
 30
0.0
 40
2.999999999999959
  0
LINE
  5
15D
  8
LAYER1
 62
    18
 10
128.1000298934275
 20
34.27321238930524
 30
0.0
 11
128.9000298934275
 21
34.27321238930524
 31
0.0
  0
LINE
  5
15E
  8
LAYER1
 62
    18
 10
128.9000298934275
 20
34.27321238930524
 30
0.0
 11
128.9000298934275
 21
35.77321238930524
 31
0.0
  0
LINE
  5
15F
  8
LAYER1
 62
    18
 10
128.1000298934275
 20
34.27321238930524
 30
0.0
 11
128.1000298934275
 21
35.77321238930524
 31
0.0
  0
CIRCLE
  5
160
  8
LAYER1
 62
    18
 10
141.5000197834546
 20
32.79999999999976
 30
0.0
 40
2.999999999999999
  0
LINE
  5
161
  8
LAYER1
 62
    18
 10
141.1000298934275
 20
34.27321238930524
 30
0.0
 11
141.9000298934275
 21
34.27321238930524
 31
0.0
  0
LINE
  5
162
  8
LAYER1
 62
    18
 10
141.9000298934275
 20
34.27321238930524
 30
0.0
 11
141.9000298934275
 21
35.77321238930524
 31
0.0
  0
LINE
  5
163
  8
LAYER1
 62
    18
 10
141.1000298934275
 20
34.27321238930524
 30
0.0
 11
141.1000298934275
 21
35.77321238930524
 31
0.0
  0
TEXT
  5
165
  8
LAYER1
 62
    18
 10
31.00000005662437
 20
25.61451617287026
 30
0.0
 40
1.789999961853027
  1
LFO
  7
TEXT538718
  0
CIRCLE
  5
166
  8
LAYER1
 62
    18
 10
33.49999999999996
 20
32.79999999999978
 30
0.0
 40
3.000000000000037
  0
LINE
  5
167
  8
LAYER1
 62
    18
 10
33.10001010997283
 20
34.27321238930521
 30
0.0
 11
33.90001010997283
 21
34.27321238930521
 31
0.0
  0
LINE
  5
168
  8
LAYER1
 62
    18
 10
33.90001010997283
 20
34.27321238930521
 30
0.0
 11
33.90001010997283
 21
35.77321238930524
 31
0.0
  0
LINE
  5
169
  8
LAYER1
 62
    18
 10
33.10001010997283
 20
34.27321238930521
 30
0.0
 11
33.10001010997283
 21
35.77321238930524
 31
0.0
  0
TEXT
  5
16B
  8
LAYER1
 62
    18
 10
57.00000005662436
 20
25.61451617287026
 30
0.0
 40
1.789999961853027
  1
EG2
  7
TEXT538731
  0
CIRCLE
  5
16C
  8
LAYER1
 62
    18
 10
59.49999999999996
 20
32.79999999999978
 30
0.0
 40
3.000000000000042
  0
LINE
  5
16D
  8
LAYER1
 62
    18
 10
59.10001010997284
 20
34.27321238930521
 30
0.0
 11
59.90001010997283
 21
34.27321238930521
 31
0.0
  0
LINE
  5
16E
  8
LAYER1
 62
    18
 10
59.90001010997283
 20
34.27321238930521
 30
0.0
 11
59.90001010997283
 21
35.77321238930524
 31
0.0
  0
LINE
  5
16F
  8
LAYER1
 62
    18
 10
59.10001010997284
 20
34.27321238930521
 30
0.0
 11
59.10001010997284
 21
35.77321238930524
 31
0.0
  0
TEXT
  5
171
  8
LAYER1
 62
    18
 10
29.40277787057893
 20
42.93936448744755
 30
0.0
 40
1.789999961853027
  1
LEVEL
  7
TEXT538744
  0
TEXT
  5
173
  8
LAYER1
 62
    18
 10
55.40277787057879
 20
42.93936448744755
 30
0.0
 40
1.789999961853027
  1
LEVEL
  7
TEXT538747
  0
TEXT
  5
175
  8
LAYER1
 62
    18
 10
112.0277976398774
 20
5.12871936629188
 30
0.0
 40
1.789999961853027
  1
AUTO
  7
TEXT538750
  0
TEXT
  5
177
  8
LAYER1
 62
    18
 10
109.8750199108595
 20
3.253719408760189
 30
0.0
 40
1.789999961853027
  1
TRIGGER
  7
TEXT538753
  0
TEXT
  5
179
  8
LAYER1
 62
    18
 10
17.02777785642282
 20
5.128719869005105
 30
0.0
 40
1.789999961853027
  1
VCO1
  7
TEXT538756
  0
TEXT
  5
17B
  8
LAYER1
 62
    18
 10
16.40277787057892
 20
2.794521384260221
 30
0.0
 40
1.789999961853027
  1
TRACK
  7
TEXT538759
  0
CIRCLE
  5
17C
  8
LAYER1
 62
    18
 10
128.5000195745441
 20
20.59999999999999
 30
0.0
 40
1.499999999999987
  0
LINE
  5
17D
  8
LAYER1
  6
DOT
 62
    18
 10
17.49999999999998
 20
64.99999999999974
 30
0.0
 11
23.49999999999998
 21
64.99999999999974
 31
0.0
  0
LINE
  5
17E
  8
LAYER1
  6
DOT
 62
    18
 10
23.49999999999998
 20
64.99999999999974
 30
0.0
 11
23.49999999999998
 21
80.59999999999978
 31
0.0
  0
LINE
  5
17F
  8
LAYER1
  6
DOT
 62
    18
 10
23.49999999999998
 20
80.59999999999978
 30
0.0
 11
17.49999999999998
 21
80.59999999999978
 31
0.0
  0
LINE
  5
180
  8
LAYER1
  6
DOT
 62
    18
 10
17.49999999999998
 20
80.59999999999978
 30
0.0
 11
17.49999999999998
 21
64.99999999999974
 31
0.0
  0
LINE
  5
181
  8
LAYER1
 62
    18
 10
18.99999999999998
 20
76.79999999999973
 30
0.0
 11
21.99999999999997
 21
76.79999999999973
 31
0.0
  0
LINE
  5
182
  8
LAYER1
 62
    18
 10
22.00000000000004
 20
76.79999999999973
 30
0.0
 11
22.00000000000004
 21
77.7999999999997
 31
0.0
  0
LINE
  5
183
  8
LAYER1
 62
    18
 10
21.99999999999997
 20
77.7999999999997
 30
0.0
 11
18.99999999999998
 21
77.7999999999997
 31
0.0
  0
LINE
  5
184
  8
LAYER1
 62
    18
 10
18.99999999999998
 20
77.7999999999997
 30
0.0
 11
18.99999999999998
 21
76.79999999999973
 31
0.0
  0
LINE
  5
185
  8
LAYER1
 62
    18
 10
18.99999999999998
 20
75.79999999999974
 30
0.0
 11
21.99999999999997
 21
75.79999999999974
 31
0.0
  0
LINE
  5
186
  8
LAYER1
 62
    18
 10
22.00000000000002
 20
75.79999999999974
 30
0.0
 11
22.00000000000002
 21
76.79999999999973
 31
0.0
  0
LINE
  5
187
  8
LAYER1
 62
    18
 10
18.99999999999998
 20
76.79999999999973
 30
0.0
 11
18.99999999999998
 21
75.79999999999974
 31
0.0
  0
LINE
  5
188
  8
LAYER1
 62
    18
 10
18.99999999999998
 20
74.79999999999976
 30
0.0
 11
21.99999999999997
 21
74.79999999999976
 31
0.0
  0
LINE
  5
189
  8
LAYER1
 62
    18
 10
21.99999999999999
 20
74.79999999999976
 30
0.0
 11
21.99999999999999
 21
75.79999999999974
 31
0.0
  0
LINE
  5
18A
  8
LAYER1
 62
    18
 10
18.99999999999998
 20
75.79999999999974
 30
0.0
 11
18.99999999999998
 21
74.79999999999976
 31
0.0
  0
LINE
  5
18B
  8
LAYER1
 62
    18
 10
18.99999999999998
 20
73.79999999999976
 30
0.0
 11
21.99999999999997
 21
73.79999999999976
 31
0.0
  0
LINE
  5
18C
  8
LAYER1
 62
    18
 10
21.99999999999997
 20
73.79999999999976
 30
0.0
 11
21.99999999999997
 21
74.79999999999976
 31
0.0
  0
LINE
  5
18D
  8
LAYER1
 62
    18
 10
18.99999999999998
 20
74.79999999999976
 30
0.0
 11
18.99999999999998
 21
73.79999999999976
 31
0.0
  0
LINE
  5
18E
  8
LAYER1
 62
    18
 10
18.99999999999998
 20
72.79999999999973
 30
0.0
 11
21.99999999999997
 21
72.79999999999973
 31
0.0
  0
LINE
  5
18F
  8
LAYER1
 62
    18
 10
21.99999999999997
 20
72.79999999999973
 30
0.0
 11
21.99999999999997
 21
73.79999999999976
 31
0.0
  0
LINE
  5
190
  8
LAYER1
 62
    18
 10
18.99999999999998
 20
73.79999999999976
 30
0.0
 11
18.99999999999998
 21
72.79999999999973
 31
0.0
  0
LINE
  5
191
  8
LAYER1
 62
    18
 10
18.99999999999998
 20
77.7999999999997
 30
0.0
 11
21.99999999999998
 21
77.7999999999997
 31
0.0
  0
LINE
  5
192
  8
LAYER1
 62
    18
 10
21.99999999999998
 20
77.7999999999997
 30
0.0
 11
21.99999999999998
 21
67.79995778706868
 31
0.0
  0
LINE
  5
193
  8
LAYER1
 62
    18
 10
21.99999999999998
 20
67.79995778706868
 30
0.0
 11
18.99999999999998
 21
67.79995778706868
 31
0.0
  0
LINE
  5
194
  8
LAYER1
 62
    18
 10
18.99999999999998
 20
67.79995778706868
 30
0.0
 11
18.99999999999998
 21
77.7999999999997
 31
0.0
  0
LINE
  5
195
  8
LAYER1
  6
DOT
 62
    18
 10
17.69999999999997
 20
26.69999999999978
 30
0.0
 11
23.29999999999998
 21
26.69999999999978
 31
0.0
  0
LINE
  5
196
  8
LAYER1
  6
DOT
 62
    18
 10
23.29999999999998
 20
26.69999999999978
 30
0.0
 11
23.29999999999998
 21
38.89999999999981
 31
0.0
  0
LINE
  5
197
  8
LAYER1
  6
DOT
 62
    18
 10
23.29999999999998
 20
38.89999999999981
 30
0.0
 11
17.69999999999997
 21
38.89999999999981
 31
0.0
  0
LINE
  5
198
  8
LAYER1
  6
DOT
 62
    18
 10
17.69999999999997
 20
38.89999999999981
 30
0.0
 11
17.69999999999997
 21
26.69999999999978
 31
0.0
  0
LINE
  5
199
  8
LAYER1
 62
    18
 10
18.99999999999998
 20
32.79999999999978
 30
0.0
 11
21.99999999999998
 21
32.79999999999978
 31
0.0
  0
LINE
  5
19A
  8
LAYER1
 62
    18
 10
21.99999999999998
 20
32.79999999999978
 30
0.0
 11
21.99999999999998
 21
35.79999999999979
 31
0.0
  0
LINE
  5
19B
  8
LAYER1
 62
    18
 10
21.99999999999998
 20
35.79999999999979
 30
0.0
 11
18.99999999999998
 21
35.79999999999979
 31
0.0
  0
LINE
  5
19C
  8
LAYER1
 62
    18
 10
18.99999999999998
 20
35.79999999999979
 30
0.0
 11
18.99999999999998
 21
32.79999999999978
 31
0.0
  0
LINE
  5
19D
  8
LAYER1
 62
    18
 10
18.99999999999998
 20
34.2999999999998
 30
0.0
 11
21.99999999999998
 21
34.2999999999998
 31
0.0
  0
LINE
  5
19E
  8
LAYER1
 62
    18
 10
20.49999999999998
 20
35.04999999999978
 30
0.0
 11
21.99999999999998
 21
35.04999999999978
 31
0.0
  0
LINE
  5
19F
  8
LAYER1
 62
    18
 10
20.49999999999998
 20
35.04999999999978
 30
0.0
 11
18.99999999999999
 21
35.04999999999978
 31
0.0
  0
LINE
  5
1A0
  8
LAYER1
 62
    18
 10
21.99999999999998
 20
33.5499999999998
 30
0.0
 11
18.99999999999998
 21
33.5499999999998
 31
0.0
  0
LINE
  5
1A1
  8
LAYER1
 62
    18
 10
18.99999999999998
 20
32.79999999999978
 30
0.0
 11
21.99999999999998
 21
32.79999999999978
 31
0.0
  0
LINE
  5
1A2
  8
LAYER1
 62
    18
 10
21.99999999999998
 20
32.79999999999978
 30
0.0
 11
21.99999999999998
 21
29.79999999999978
 31
0.0
  0
LINE
  5
1A3
  8
LAYER1
 62
    18
 10
21.99999999999998
 20
29.79999999999978
 30
0.0
 11
18.99999999999998
 21
29.79999999999978
 31
0.0
  0
LINE
  5
1A4
  8
LAYER1
 62
    18
 10
18.99999999999998
 20
29.79999999999978
 30
0.0
 11
18.99999999999998
 21
32.79999999999978
 31
0.0
  0
LINE
  5
1A5
  8
LAYER1
  6
DOT
 62
    18
 10
17.50000000000001
 20
44.99999999999974
 30
0.0
 11
23.50000000000001
 21
44.99999999999974
 31
0.0
  0
LINE
  5
1A6
  8
LAYER1
  6
DOT
 62
    18
 10
23.50000000000001
 20
44.99999999999974
 30
0.0
 11
23.50000000000001
 21
60.59999999999977
 31
0.0
  0
LINE
  5
1A7
  8
LAYER1
  6
DOT
 62
    18
 10
23.50000000000001
 20
60.59999999999977
 30
0.0
 11
17.50000000000001
 21
60.59999999999977
 31
0.0
  0
LINE
  5
1A8
  8
LAYER1
  6
DOT
 62
    18
 10
17.50000000000001
 20
60.59999999999977
 30
0.0
 11
17.50000000000001
 21
44.99999999999974
 31
0.0
  0
LINE
  5
1A9
  8
LAYER1
 62
    18
 10
19.0
 20
56.79999999999971
 30
0.0
 11
22.0
 21
56.79999999999971
 31
0.0
  0
LINE
  5
1AA
  8
LAYER1
 62
    18
 10
22.00000000000007
 20
56.79999999999971
 30
0.0
 11
22.00000000000007
 21
57.79999999999969
 31
0.0
  0
LINE
  5
1AB
  8
LAYER1
 62
    18
 10
22.0
 20
57.79999999999969
 30
0.0
 11
19.0
 21
57.79999999999969
 31
0.0
  0
LINE
  5
1AC
  8
LAYER1
 62
    18
 10
19.0
 20
57.79999999999969
 30
0.0
 11
19.0
 21
56.79999999999971
 31
0.0
  0
LINE
  5
1AD
  8
LAYER1
 62
    18
 10
19.0
 20
55.79999999999974
 30
0.0
 11
22.0
 21
55.79999999999974
 31
0.0
  0
LINE
  5
1AE
  8
LAYER1
 62
    18
 10
22.00000000000006
 20
55.79999999999974
 30
0.0
 11
22.00000000000006
 21
56.79999999999971
 31
0.0
  0
LINE
  5
1AF
  8
LAYER1
 62
    18
 10
19.0
 20
56.79999999999971
 30
0.0
 11
19.0
 21
55.79999999999974
 31
0.0
  0
LINE
  5
1B0
  8
LAYER1
 62
    18
 10
19.0
 20
54.79999999999974
 30
0.0
 11
22.0
 21
54.79999999999974
 31
0.0
  0
LINE
  5
1B1
  8
LAYER1
 62
    18
 10
22.00000000000002
 20
54.79999999999974
 30
0.0
 11
22.00000000000002
 21
55.79999999999974
 31
0.0
  0
LINE
  5
1B2
  8
LAYER1
 62
    18
 10
19.0
 20
55.79999999999974
 30
0.0
 11
19.0
 21
54.79999999999974
 31
0.0
  0
LINE
  5
1B3
  8
LAYER1
 62
    18
 10
19.0
 20
53.79999999999974
 30
0.0
 11
22.0
 21
53.79999999999974
 31
0.0
  0
LINE
  5
1B4
  8
LAYER1
 62
    18
 10
22.0
 20
53.79999999999974
 30
0.0
 11
22.0
 21
54.79999999999974
 31
0.0
  0
LINE
  5
1B5
  8
LAYER1
 62
    18
 10
19.0
 20
54.79999999999974
 30
0.0
 11
19.0
 21
53.79999999999974
 31
0.0
  0
LINE
  5
1B6
  8
LAYER1
 62
    18
 10
19.0
 20
52.79999999999972
 30
0.0
 11
22.0
 21
52.79999999999972
 31
0.0
  0
LINE
  5
1B7
  8
LAYER1
 62
    18
 10
22.0
 20
52.79999999999972
 30
0.0
 11
22.0
 21
53.79999999999974
 31
0.0
  0
LINE
  5
1B8
  8
LAYER1
 62
    18
 10
19.0
 20
53.79999999999974
 30
0.0
 11
19.0
 21
52.79999999999972
 31
0.0
  0
LINE
  5
1B9
  8
LAYER1
 62
    18
 10
19.0
 20
57.79999999999969
 30
0.0
 11
22.00000000000001
 21
57.79999999999969
 31
0.0
  0
LINE
  5
1BA
  8
LAYER1
 62
    18
 10
22.00000000000001
 20
57.79999999999969
 30
0.0
 11
22.00000000000001
 21
47.79995778706867
 31
0.0
  0
LINE
  5
1BB
  8
LAYER1
 62
    18
 10
22.00000000000001
 20
47.79995778706867
 30
0.0
 11
19.0
 21
47.79995778706867
 31
0.0
  0
LINE
  5
1BC
  8
LAYER1
 62
    18
 10
19.0
 20
47.79995778706867
 30
0.0
 11
19.0
 21
57.79999999999969
 31
0.0
  0
LINE
  5
1BD
  8
LAYER1
  6
DOT
 62
    18
 10
43.49999999999996
 20
64.99999999999977
 30
0.0
 11
49.49999999999996
 21
64.99999999999977
 31
0.0
  0
LINE
  5
1BE
  8
LAYER1
  6
DOT
 62
    18
 10
49.49999999999996
 20
64.99999999999977
 30
0.0
 11
49.49999999999996
 21
80.59999999999981
 31
0.0
  0
LINE
  5
1BF
  8
LAYER1
  6
DOT
 62
    18
 10
49.49999999999996
 20
80.59999999999981
 30
0.0
 11
43.49999999999996
 21
80.59999999999981
 31
0.0
  0
LINE
  5
1C0
  8
LAYER1
  6
DOT
 62
    18
 10
43.49999999999996
 20
80.59999999999981
 30
0.0
 11
43.49999999999996
 21
64.99999999999977
 31
0.0
  0
LINE
  5
1C1
  8
LAYER1
 62
    18
 10
44.99999999999996
 20
76.79999999999974
 30
0.0
 11
47.99999999999996
 21
76.79999999999974
 31
0.0
  0
LINE
  5
1C2
  8
LAYER1
 62
    18
 10
48.00000000000002
 20
76.79999999999974
 30
0.0
 11
48.00000000000002
 21
77.79999999999973
 31
0.0
  0
LINE
  5
1C3
  8
LAYER1
 62
    18
 10
47.99999999999996
 20
77.79999999999973
 30
0.0
 11
44.99999999999996
 21
77.79999999999973
 31
0.0
  0
LINE
  5
1C4
  8
LAYER1
 62
    18
 10
44.99999999999996
 20
77.79999999999973
 30
0.0
 11
44.99999999999996
 21
76.79999999999974
 31
0.0
  0
LINE
  5
1C5
  8
LAYER1
 62
    18
 10
44.99999999999996
 20
75.79999999999977
 30
0.0
 11
47.99999999999996
 21
75.79999999999977
 31
0.0
  0
LINE
  5
1C6
  8
LAYER1
 62
    18
 10
48.0
 20
75.79999999999977
 30
0.0
 11
48.0
 21
76.79999999999974
 31
0.0
  0
LINE
  5
1C7
  8
LAYER1
 62
    18
 10
44.99999999999996
 20
76.79999999999974
 30
0.0
 11
44.99999999999996
 21
75.79999999999977
 31
0.0
  0
LINE
  5
1C8
  8
LAYER1
 62
    18
 10
44.99999999999996
 20
74.79999999999977
 30
0.0
 11
47.99999999999996
 21
74.79999999999977
 31
0.0
  0
LINE
  5
1C9
  8
LAYER1
 62
    18
 10
47.99999999999998
 20
74.79999999999977
 30
0.0
 11
47.99999999999998
 21
75.79999999999977
 31
0.0
  0
LINE
  5
1CA
  8
LAYER1
 62
    18
 10
44.99999999999996
 20
75.79999999999977
 30
0.0
 11
44.99999999999996
 21
74.79999999999977
 31
0.0
  0
LINE
  5
1CB
  8
LAYER1
 62
    18
 10
44.99999999999996
 20
73.79999999999977
 30
0.0
 11
47.99999999999996
 21
73.79999999999977
 31
0.0
  0
LINE
  5
1CC
  8
LAYER1
 62
    18
 10
47.99999999999996
 20
73.79999999999977
 30
0.0
 11
47.99999999999996
 21
74.79999999999977
 31
0.0
  0
LINE
  5
1CD
  8
LAYER1
 62
    18
 10
44.99999999999996
 20
74.79999999999977
 30
0.0
 11
44.99999999999996
 21
73.79999999999977
 31
0.0
  0
LINE
  5
1CE
  8
LAYER1
 62
    18
 10
44.99999999999996
 20
72.79999999999976
 30
0.0
 11
47.99999999999996
 21
72.79999999999976
 31
0.0
  0
LINE
  5
1CF
  8
LAYER1
 62
    18
 10
47.99999999999996
 20
72.79999999999976
 30
0.0
 11
47.99999999999996
 21
73.79999999999977
 31
0.0
  0
LINE
  5
1D0
  8
LAYER1
 62
    18
 10
44.99999999999996
 20
73.79999999999977
 30
0.0
 11
44.99999999999996
 21
72.79999999999976
 31
0.0
  0
LINE
  5
1D1
  8
LAYER1
 62
    18
 10
44.99999999999996
 20
77.79999999999973
 30
0.0
 11
47.99999999999996
 21
77.79999999999973
 31
0.0
  0
LINE
  5
1D2
  8
LAYER1
 62
    18
 10
47.99999999999996
 20
77.79999999999973
 30
0.0
 11
47.99999999999996
 21
67.7999577870687
 31
0.0
  0
LINE
  5
1D3
  8
LAYER1
 62
    18
 10
47.99999999999996
 20
67.7999577870687
 30
0.0
 11
44.99999999999996
 21
67.7999577870687
 31
0.0
  0
LINE
  5
1D4
  8
LAYER1
 62
    18
 10
44.99999999999996
 20
67.7999577870687
 30
0.0
 11
44.99999999999996
 21
77.79999999999973
 31
0.0
  0
LINE
  5
1D5
  8
LAYER1
  6
DOT
 62
    18
 10
43.49999999999994
 20
44.99999999999974
 30
0.0
 11
49.49999999999993
 21
44.99999999999974
 31
0.0
  0
LINE
  5
1D6
  8
LAYER1
  6
DOT
 62
    18
 10
49.49999999999993
 20
44.99999999999974
 30
0.0
 11
49.49999999999993
 21
60.59999999999977
 31
0.0
  0
LINE
  5
1D7
  8
LAYER1
  6
DOT
 62
    18
 10
49.49999999999993
 20
60.59999999999977
 30
0.0
 11
43.49999999999994
 21
60.59999999999977
 31
0.0
  0
LINE
  5
1D8
  8
LAYER1
  6
DOT
 62
    18
 10
43.49999999999994
 20
60.59999999999977
 30
0.0
 11
43.49999999999994
 21
44.99999999999974
 31
0.0
  0
LINE
  5
1D9
  8
LAYER1
 62
    18
 10
44.99999999999993
 20
56.79999999999971
 30
0.0
 11
47.99999999999993
 21
56.79999999999971
 31
0.0
  0
LINE
  5
1DA
  8
LAYER1
 62
    18
 10
48.0
 20
56.79999999999971
 30
0.0
 11
48.0
 21
57.79999999999969
 31
0.0
  0
LINE
  5
1DB
  8
LAYER1
 62
    18
 10
47.99999999999993
 20
57.79999999999969
 30
0.0
 11
44.99999999999993
 21
57.79999999999969
 31
0.0
  0
LINE
  5
1DC
  8
LAYER1
 62
    18
 10
44.99999999999993
 20
57.79999999999969
 30
0.0
 11
44.99999999999993
 21
56.79999999999971
 31
0.0
  0
LINE
  5
1DD
  8
LAYER1
 62
    18
 10
44.99999999999993
 20
55.79999999999974
 30
0.0
 11
47.99999999999993
 21
55.79999999999974
 31
0.0
  0
LINE
  5
1DE
  8
LAYER1
 62
    18
 10
47.99999999999997
 20
55.79999999999974
 30
0.0
 11
47.99999999999997
 21
56.79999999999971
 31
0.0
  0
LINE
  5
1DF
  8
LAYER1
 62
    18
 10
44.99999999999993
 20
56.79999999999971
 30
0.0
 11
44.99999999999993
 21
55.79999999999974
 31
0.0
  0
LINE
  5
1E0
  8
LAYER1
 62
    18
 10
44.99999999999993
 20
54.79999999999974
 30
0.0
 11
47.99999999999993
 21
54.79999999999974
 31
0.0
  0
LINE
  5
1E1
  8
LAYER1
 62
    18
 10
47.99999999999995
 20
54.79999999999974
 30
0.0
 11
47.99999999999995
 21
55.79999999999974
 31
0.0
  0
LINE
  5
1E2
  8
LAYER1
 62
    18
 10
44.99999999999993
 20
55.79999999999974
 30
0.0
 11
44.99999999999993
 21
54.79999999999974
 31
0.0
  0
LINE
  5
1E3
  8
LAYER1
 62
    18
 10
44.99999999999993
 20
53.79999999999974
 30
0.0
 11
47.99999999999993
 21
53.79999999999974
 31
0.0
  0
LINE
  5
1E4
  8
LAYER1
 62
    18
 10
47.99999999999993
 20
53.79999999999974
 30
0.0
 11
47.99999999999993
 21
54.79999999999974
 31
0.0
  0
LINE
  5
1E5
  8
LAYER1
 62
    18
 10
44.99999999999993
 20
54.79999999999974
 30
0.0
 11
44.99999999999993
 21
53.79999999999974
 31
0.0
  0
LINE
  5
1E6
  8
LAYER1
 62
    18
 10
44.99999999999993
 20
52.79999999999972
 30
0.0
 11
47.99999999999993
 21
52.79999999999972
 31
0.0
  0
LINE
  5
1E7
  8
LAYER1
 62
    18
 10
47.99999999999993
 20
52.79999999999972
 30
0.0
 11
47.99999999999993
 21
53.79999999999974
 31
0.0
  0
LINE
  5
1E8
  8
LAYER1
 62
    18
 10
44.99999999999993
 20
53.79999999999974
 30
0.0
 11
44.99999999999993
 21
52.79999999999972
 31
0.0
  0
LINE
  5
1E9
  8
LAYER1
 62
    18
 10
44.99999999999993
 20
57.79999999999969
 30
0.0
 11
47.99999999999993
 21
57.79999999999969
 31
0.0
  0
LINE
  5
1EA
  8
LAYER1
 62
    18
 10
47.99999999999993
 20
57.79999999999969
 30
0.0
 11
47.99999999999993
 21
47.79995778706867
 31
0.0
  0
LINE
  5
1EB
  8
LAYER1
 62
    18
 10
47.99999999999993
 20
47.79995778706867
 30
0.0
 11
44.99999999999993
 21
47.79995778706867
 31
0.0
  0
LINE
  5
1EC
  8
LAYER1
 62
    18
 10
44.99999999999993
 20
47.79995778706867
 30
0.0
 11
44.99999999999993
 21
57.79999999999969
 31
0.0
  0
LINE
  5
1ED
  8
LAYER1
  6
DOT
 62
    18
 10
84.49999999999987
 20
4.999999999999999
 30
0.0
 11
90.49999999999986
 21
4.999999999999999
 31
0.0
  0
LINE
  5
1EE
  8
LAYER1
  6
DOT
 62
    18
 10
90.49999999999986
 20
4.999999999999999
 30
0.0
 11
90.49999999999986
 21
20.60000000000004
 31
0.0
  0
LINE
  5
1EF
  8
LAYER1
  6
DOT
 62
    18
 10
90.49999999999986
 20
20.60000000000004
 30
0.0
 11
84.49999999999987
 21
20.60000000000004
 31
0.0
  0
LINE
  5
1F0
  8
LAYER1
  6
DOT
 62
    18
 10
84.49999999999987
 20
20.60000000000004
 30
0.0
 11
84.49999999999987
 21
4.999999999999999
 31
0.0
  0
LINE
  5
1F1
  8
LAYER1
 62
    18
 10
85.99999999999986
 20
16.79999999999998
 30
0.0
 11
88.99999999999986
 21
16.79999999999998
 31
0.0
  0
LINE
  5
1F2
  8
LAYER1
 62
    18
 10
88.99999999999993
 20
16.79999999999998
 30
0.0
 11
88.99999999999993
 21
17.79999999999995
 31
0.0
  0
LINE
  5
1F3
  8
LAYER1
 62
    18
 10
88.99999999999986
 20
17.79999999999995
 30
0.0
 11
85.99999999999986
 21
17.79999999999995
 31
0.0
  0
LINE
  5
1F4
  8
LAYER1
 62
    18
 10
85.99999999999986
 20
17.79999999999995
 30
0.0
 11
85.99999999999986
 21
16.79999999999998
 31
0.0
  0
LINE
  5
1F5
  8
LAYER1
 62
    18
 10
85.99999999999986
 20
15.8
 30
0.0
 11
88.99999999999986
 21
15.8
 31
0.0
  0
LINE
  5
1F6
  8
LAYER1
 62
    18
 10
88.9999999999999
 20
15.8
 30
0.0
 11
88.9999999999999
 21
16.79999999999998
 31
0.0
  0
LINE
  5
1F7
  8
LAYER1
 62
    18
 10
85.99999999999986
 20
16.79999999999998
 30
0.0
 11
85.99999999999986
 21
15.8
 31
0.0
  0
LINE
  5
1F8
  8
LAYER1
 62
    18
 10
85.99999999999986
 20
14.8
 30
0.0
 11
88.99999999999986
 21
14.8
 31
0.0
  0
LINE
  5
1F9
  8
LAYER1
 62
    18
 10
88.99999999999989
 20
14.8
 30
0.0
 11
88.99999999999989
 21
15.8
 31
0.0
  0
LINE
  5
1FA
  8
LAYER1
 62
    18
 10
85.99999999999986
 20
15.8
 30
0.0
 11
85.99999999999986
 21
14.8
 31
0.0
  0
LINE
  5
1FB
  8
LAYER1
 62
    18
 10
85.99999999999986
 20
13.80000000000001
 30
0.0
 11
88.99999999999986
 21
13.80000000000001
 31
0.0
  0
LINE
  5
1FC
  8
LAYER1
 62
    18
 10
88.99999999999986
 20
13.80000000000001
 30
0.0
 11
88.99999999999986
 21
14.8
 31
0.0
  0
LINE
  5
1FD
  8
LAYER1
 62
    18
 10
85.99999999999986
 20
14.8
 30
0.0
 11
85.99999999999986
 21
13.80000000000001
 31
0.0
  0
LINE
  5
1FE
  8
LAYER1
 62
    18
 10
85.99999999999986
 20
12.79999999999998
 30
0.0
 11
88.99999999999986
 21
12.79999999999998
 31
0.0
  0
LINE
  5
1FF
  8
LAYER1
 62
    18
 10
88.99999999999986
 20
12.79999999999998
 30
0.0
 11
88.99999999999986
 21
13.80000000000001
 31
0.0
  0
LINE
  5
200
  8
LAYER1
 62
    18
 10
85.99999999999986
 20
13.80000000000001
 30
0.0
 11
85.99999999999986
 21
12.79999999999998
 31
0.0
  0
LINE
  5
201
  8
LAYER1
 62
    18
 10
85.99999999999986
 20
17.79999999999995
 30
0.0
 11
88.99999999999986
 21
17.79999999999995
 31
0.0
  0
LINE
  5
202
  8
LAYER1
 62
    18
 10
88.99999999999986
 20
17.79999999999995
 30
0.0
 11
88.99999999999986
 21
7.799957787068936
 31
0.0
  0
LINE
  5
203
  8
LAYER1
 62
    18
 10
88.99999999999986
 20
7.799957787068936
 30
0.0
 11
85.99999999999986
 21
7.799957787068936
 31
0.0
  0
LINE
  5
204
  8
LAYER1
 62
    18
 10
85.99999999999986
 20
7.799957787068936
 30
0.0
 11
85.99999999999986
 21
17.79999999999995
 31
0.0
  0
LINE
  5
205
  8
LAYER1
  6
DOT
 62
    18
 10
17.69999999999998
 20
6.699999999999796
 30
0.0
 11
23.29999999999998
 21
6.699999999999796
 31
0.0
  0
LINE
  5
206
  8
LAYER1
  6
DOT
 62
    18
 10
23.29999999999998
 20
6.699999999999796
 30
0.0
 11
23.29999999999998
 21
18.89999999999983
 31
0.0
  0
LINE
  5
207
  8
LAYER1
  6
DOT
 62
    18
 10
23.29999999999998
 20
18.89999999999983
 30
0.0
 11
17.69999999999998
 21
18.89999999999983
 31
0.0
  0
LINE
  5
208
  8
LAYER1
  6
DOT
 62
    18
 10
17.69999999999998
 20
18.89999999999983
 30
0.0
 11
17.69999999999998
 21
6.699999999999796
 31
0.0
  0
LINE
  5
209
  8
LAYER1
 62
    18
 10
18.99999999999999
 20
12.7999999999998
 30
0.0
 11
21.99999999999999
 21
12.7999999999998
 31
0.0
  0
LINE
  5
20A
  8
LAYER1
 62
    18
 10
21.99999999999999
 20
12.7999999999998
 30
0.0
 11
21.99999999999999
 21
15.79999999999981
 31
0.0
  0
LINE
  5
20B
  8
LAYER1
 62
    18
 10
21.99999999999999
 20
15.79999999999981
 30
0.0
 11
18.99999999999999
 21
15.79999999999981
 31
0.0
  0
LINE
  5
20C
  8
LAYER1
 62
    18
 10
18.99999999999999
 20
15.79999999999981
 30
0.0
 11
18.99999999999999
 21
12.7999999999998
 31
0.0
  0
LINE
  5
20D
  8
LAYER1
 62
    18
 10
18.99999999999999
 20
14.29999999999982
 30
0.0
 11
21.99999999999999
 21
14.29999999999982
 31
0.0
  0
LINE
  5
20E
  8
LAYER1
 62
    18
 10
20.49999999999998
 20
15.0499999999998
 30
0.0
 11
21.99999999999999
 21
15.0499999999998
 31
0.0
  0
LINE
  5
20F
  8
LAYER1
 62
    18
 10
20.49999999999998
 20
15.0499999999998
 30
0.0
 11
18.99999999999999
 21
15.0499999999998
 31
0.0
  0
LINE
  5
210
  8
LAYER1
 62
    18
 10
21.99999999999999
 20
13.54999999999982
 30
0.0
 11
18.99999999999999
 21
13.54999999999982
 31
0.0
  0
LINE
  5
211
  8
LAYER1
 62
    18
 10
18.99999999999999
 20
12.7999999999998
 30
0.0
 11
21.99999999999999
 21
12.7999999999998
 31
0.0
  0
LINE
  5
212
  8
LAYER1
 62
    18
 10
21.99999999999999
 20
12.7999999999998
 30
0.0
 11
21.99999999999999
 21
9.799999999999802
 31
0.0
  0
LINE
  5
213
  8
LAYER1
 62
    18
 10
21.99999999999999
 20
9.799999999999802
 30
0.0
 11
18.99999999999999
 21
9.799999999999802
 31
0.0
  0
LINE
  5
214
  8
LAYER1
 62
    18
 10
18.99999999999999
 20
9.799999999999802
 30
0.0
 11
18.99999999999999
 21
12.7999999999998
 31
0.0
  0
LINE
  5
215
  8
LAYER1
  6
DOT
 62
    18
 10
43.69999999999994
 20
26.69999999999978
 30
0.0
 11
49.29999999999994
 21
26.69999999999978
 31
0.0
  0
LINE
  5
216
  8
LAYER1
  6
DOT
 62
    18
 10
49.29999999999994
 20
26.69999999999978
 30
0.0
 11
49.29999999999994
 21
38.89999999999981
 31
0.0
  0
LINE
  5
217
  8
LAYER1
  6
DOT
 62
    18
 10
49.29999999999994
 20
38.89999999999981
 30
0.0
 11
43.69999999999994
 21
38.89999999999981
 31
0.0
  0
LINE
  5
218
  8
LAYER1
  6
DOT
 62
    18
 10
43.69999999999994
 20
38.89999999999981
 30
0.0
 11
43.69999999999994
 21
26.69999999999978
 31
0.0
  0
LINE
  5
219
  8
LAYER1
 62
    18
 10
44.99999999999994
 20
32.79999999999978
 30
0.0
 11
47.99999999999994
 21
32.79999999999978
 31
0.0
  0
LINE
  5
21A
  8
LAYER1
 62
    18
 10
47.99999999999994
 20
32.79999999999978
 30
0.0
 11
47.99999999999994
 21
35.79999999999979
 31
0.0
  0
LINE
  5
21B
  8
LAYER1
 62
    18
 10
47.99999999999994
 20
35.79999999999979
 30
0.0
 11
44.99999999999994
 21
35.79999999999979
 31
0.0
  0
LINE
  5
21C
  8
LAYER1
 62
    18
 10
44.99999999999994
 20
35.79999999999979
 30
0.0
 11
44.99999999999994
 21
32.79999999999978
 31
0.0
  0
LINE
  5
21D
  8
LAYER1
 62
    18
 10
44.99999999999994
 20
34.2999999999998
 30
0.0
 11
47.99999999999994
 21
34.2999999999998
 31
0.0
  0
LINE
  5
21E
  8
LAYER1
 62
    18
 10
46.49999999999993
 20
35.04999999999978
 30
0.0
 11
47.99999999999994
 21
35.04999999999978
 31
0.0
  0
LINE
  5
21F
  8
LAYER1
 62
    18
 10
46.49999999999993
 20
35.04999999999978
 30
0.0
 11
44.99999999999994
 21
35.04999999999978
 31
0.0
  0
LINE
  5
220
  8
LAYER1
 62
    18
 10
47.99999999999994
 20
33.5499999999998
 30
0.0
 11
44.99999999999994
 21
33.5499999999998
 31
0.0
  0
LINE
  5
221
  8
LAYER1
 62
    18
 10
44.99999999999994
 20
32.79999999999978
 30
0.0
 11
47.99999999999994
 21
32.79999999999978
 31
0.0
  0
LINE
  5
222
  8
LAYER1
 62
    18
 10
47.99999999999994
 20
32.79999999999978
 30
0.0
 11
47.99999999999994
 21
29.79999999999978
 31
0.0
  0
LINE
  5
223
  8
LAYER1
 62
    18
 10
47.99999999999994
 20
29.79999999999978
 30
0.0
 11
44.99999999999994
 21
29.79999999999978
 31
0.0
  0
LINE
  5
224
  8
LAYER1
 62
    18
 10
44.99999999999994
 20
29.79999999999978
 30
0.0
 11
44.99999999999994
 21
32.79999999999978
 31
0.0
  0
LINE
  5
225
  8
LAYER1
  6
DOT
 62
    18
 10
112.7000197834546
 20
6.699999999999767
 30
0.0
 11
118.3000197834546
 21
6.699999999999767
 31
0.0
  0
LINE
  5
226
  8
LAYER1
  6
DOT
 62
    18
 10
118.3000197834546
 20
6.699999999999767
 30
0.0
 11
118.3000197834546
 21
18.8999999999998
 31
0.0
  0
LINE
  5
227
  8
LAYER1
  6
DOT
 62
    18
 10
118.3000197834546
 20
18.8999999999998
 30
0.0
 11
112.7000197834546
 21
18.8999999999998
 31
0.0
  0
LINE
  5
228
  8
LAYER1
  6
DOT
 62
    18
 10
112.7000197834546
 20
18.8999999999998
 30
0.0
 11
112.7000197834546
 21
6.699999999999767
 31
0.0
  0
LINE
  5
229
  8
LAYER1
 62
    18
 10
114.0000197834546
 20
12.79999999999977
 30
0.0
 11
117.0000197834546
 21
12.79999999999977
 31
0.0
  0
LINE
  5
22A
  8
LAYER1
 62
    18
 10
117.0000197834546
 20
12.79999999999977
 30
0.0
 11
117.0000197834546
 21
15.79999999999979
 31
0.0
  0
LINE
  5
22B
  8
LAYER1
 62
    18
 10
117.0000197834546
 20
15.79999999999979
 30
0.0
 11
114.0000197834546
 21
15.79999999999979
 31
0.0
  0
LINE
  5
22C
  8
LAYER1
 62
    18
 10
114.0000197834546
 20
15.79999999999979
 30
0.0
 11
114.0000197834546
 21
12.79999999999977
 31
0.0
  0
LINE
  5
22D
  8
LAYER1
 62
    18
 10
114.0000197834546
 20
14.29999999999979
 30
0.0
 11
117.0000197834546
 21
14.29999999999979
 31
0.0
  0
LINE
  5
22E
  8
LAYER1
 62
    18
 10
115.5000197834546
 20
15.04999999999978
 30
0.0
 11
117.0000197834546
 21
15.04999999999978
 31
0.0
  0
LINE
  5
22F
  8
LAYER1
 62
    18
 10
115.5000197834546
 20
15.04999999999978
 30
0.0
 11
114.0000197834546
 21
15.04999999999978
 31
0.0
  0
LINE
  5
230
  8
LAYER1
 62
    18
 10
117.0000197834546
 20
13.54999999999979
 30
0.0
 11
114.0000197834546
 21
13.54999999999979
 31
0.0
  0
LINE
  5
231
  8
LAYER1
 62
    18
 10
114.0000197834546
 20
12.79999999999977
 30
0.0
 11
117.0000197834546
 21
12.79999999999977
 31
0.0
  0
LINE
  5
232
  8
LAYER1
 62
    18
 10
117.0000197834546
 20
12.79999999999977
 30
0.0
 11
117.0000197834546
 21
9.799999999999773
 31
0.0
  0
LINE
  5
233
  8
LAYER1
 62
    18
 10
117.0000197834546
 20
9.799999999999773
 30
0.0
 11
114.0000197834546
 21
9.799999999999773
 31
0.0
  0
LINE
  5
234
  8
LAYER1
 62
    18
 10
114.0000197834546
 20
9.799999999999773
 30
0.0
 11
114.0000197834546
 21
12.79999999999977
 31
0.0
  0
LINE
  5
235
  8
LAYER1
  6
DOT
 62
    18
 10
56.49999999999999
 20
64.99999999999983
 30
0.0
 11
62.49999999999998
 21
64.99999999999983
 31
0.0
  0
LINE
  5
236
  8
LAYER1
  6
DOT
 62
    18
 10
62.49999999999998
 20
64.99999999999983
 30
0.0
 11
62.49999999999998
 21
80.59999999999987
 31
0.0
  0
LINE
  5
237
  8
LAYER1
  6
DOT
 62
    18
 10
62.49999999999998
 20
80.59999999999987
 30
0.0
 11
56.49999999999999
 21
80.59999999999987
 31
0.0
  0
LINE
  5
238
  8
LAYER1
  6
DOT
 62
    18
 10
56.49999999999999
 20
80.59999999999987
 30
0.0
 11
56.49999999999999
 21
64.99999999999983
 31
0.0
  0
LINE
  5
239
  8
LAYER1
 62
    18
 10
57.99999999999999
 20
76.7999999999998
 30
0.0
 11
60.99999999999998
 21
76.7999999999998
 31
0.0
  0
LINE
  5
23A
  8
LAYER1
 62
    18
 10
61.00000000000004
 20
76.7999999999998
 30
0.0
 11
61.00000000000004
 21
77.79999999999978
 31
0.0
  0
LINE
  5
23B
  8
LAYER1
 62
    18
 10
60.99999999999998
 20
77.79999999999978
 30
0.0
 11
57.99999999999999
 21
77.79999999999978
 31
0.0
  0
LINE
  5
23C
  8
LAYER1
 62
    18
 10
57.99999999999999
 20
77.79999999999978
 30
0.0
 11
57.99999999999999
 21
76.7999999999998
 31
0.0
  0
LINE
  5
23D
  8
LAYER1
 62
    18
 10
57.99999999999999
 20
75.79999999999983
 30
0.0
 11
60.99999999999998
 21
75.79999999999983
 31
0.0
  0
LINE
  5
23E
  8
LAYER1
 62
    18
 10
61.00000000000002
 20
75.79999999999983
 30
0.0
 11
61.00000000000002
 21
76.7999999999998
 31
0.0
  0
LINE
  5
23F
  8
LAYER1
 62
    18
 10
57.99999999999999
 20
76.7999999999998
 30
0.0
 11
57.99999999999999
 21
75.79999999999983
 31
0.0
  0
LINE
  5
240
  8
LAYER1
 62
    18
 10
57.99999999999999
 20
74.79999999999983
 30
0.0
 11
60.99999999999998
 21
74.79999999999983
 31
0.0
  0
LINE
  5
241
  8
LAYER1
 62
    18
 10
61.0
 20
74.79999999999983
 30
0.0
 11
61.0
 21
75.79999999999983
 31
0.0
  0
LINE
  5
242
  8
LAYER1
 62
    18
 10
57.99999999999999
 20
75.79999999999983
 30
0.0
 11
57.99999999999999
 21
74.79999999999983
 31
0.0
  0
LINE
  5
243
  8
LAYER1
 62
    18
 10
57.99999999999999
 20
73.79999999999983
 30
0.0
 11
60.99999999999998
 21
73.79999999999983
 31
0.0
  0
LINE
  5
244
  8
LAYER1
 62
    18
 10
60.99999999999998
 20
73.79999999999983
 30
0.0
 11
60.99999999999998
 21
74.79999999999983
 31
0.0
  0
LINE
  5
245
  8
LAYER1
 62
    18
 10
57.99999999999999
 20
74.79999999999983
 30
0.0
 11
57.99999999999999
 21
73.79999999999983
 31
0.0
  0
LINE
  5
246
  8
LAYER1
 62
    18
 10
57.99999999999999
 20
72.79999999999981
 30
0.0
 11
60.99999999999998
 21
72.79999999999981
 31
0.0
  0
LINE
  5
247
  8
LAYER1
 62
    18
 10
60.99999999999998
 20
72.79999999999981
 30
0.0
 11
60.99999999999998
 21
73.79999999999983
 31
0.0
  0
LINE
  5
248
  8
LAYER1
 62
    18
 10
57.99999999999999
 20
73.79999999999983
 30
0.0
 11
57.99999999999999
 21
72.79999999999981
 31
0.0
  0
LINE
  5
249
  8
LAYER1
 62
    18
 10
57.99999999999999
 20
77.79999999999978
 30
0.0
 11
60.99999999999998
 21
77.79999999999978
 31
0.0
  0
LINE
  5
24A
  8
LAYER1
 62
    18
 10
60.99999999999998
 20
77.79999999999978
 30
0.0
 11
60.99999999999998
 21
67.79995778706876
 31
0.0
  0
LINE
  5
24B
  8
LAYER1
 62
    18
 10
60.99999999999998
 20
67.79995778706876
 30
0.0
 11
57.99999999999999
 21
67.79995778706876
 31
0.0
  0
LINE
  5
24C
  8
LAYER1
 62
    18
 10
57.99999999999999
 20
67.79995778706876
 30
0.0
 11
57.99999999999999
 21
77.79999999999978
 31
0.0
  0
TEXT
  5
24E
  8
LAYER1
 62
    18
 10
43.86111117088129
 20
65.06638694829363
 30
0.0
 40
1.789999961853027
  1
OCT
  7
TEXT539232
  0
TEXT
  5
250
  8
LAYER1
 62
    18
 10
42.1944445419642
 20
45.06638952321424
 30
0.0
 40
1.789999961853027
  1
SHAPE
  7
TEXT539235
  0
TEXT
  5
252
  8
LAYER1
 62
    18
 10
17.8611111708813
 20
65.06638694829361
 30
0.0
 40
1.789999961853027
  1
OCT
  7
TEXT539238
  0
TEXT
  5
254
  8
LAYER1
 62
    18
 10
24.38088154329797
 20
67.79995778706868
 30
0.0
 40
1.789999961853027
  1
0
  7
TEXT539241
  0
TEXT
  5
256
  8
LAYER1
 62
    18
 10
16.19444454196428
 20
45.06638952321424
 30
0.0
 40
1.789999961853027
  1
SHAPE
  7
TEXT539244
  0
TEXT
  5
258
  8
LAYER1
 62
    18
 10
55.95833341355122
 20
65.06638694829368
 30
0.0
 40
1.789999961853027
  1
SYNC
  7
TEXT539247
  0
TEXT
  5
25A
  8
LAYER1
 62
    18
 10
22.99734314039827
 20
71.85864199662991
 30
0.0
 40
1.789999961853027
  1
+1
  7
TEXT539250
  0
TEXT
  5
25C
  8
LAYER1
 62
    18
 10
22.99734314039827
 20
75.91728399326006
 30
0.0
 40
1.789999961853027
  1
+2
  7
TEXT539253
  0
TEXT
  5
25E
  8
LAYER1
 62
    18
 10
50.56382094508582
 20
71.97612554200006
 30
0.0
 40
1.789999961853027
  1
0
  7
TEXT539256
  0
TEXT
  5
260
  8
LAYER1
 62
    18
 10
48.92254824299553
 20
67.7999577870687
 30
0.0
 40
1.789999961853027
  1
\U+22121
  7
TEXT539259
  0
TEXT
  5
262
  8
LAYER1
 62
    18
 10
48.99734314039826
 20
75.91728399326007
 30
0.0
 40
1.789999961853027
  1
+1
  7
TEXT539262
  0
TEXT
  5
264
  8
LAYER1
 62
    18
 10
62.16474220625189
 20
67.79995778706876
 30
0.0
 40
1.789999961853027
  1
2<1
  7
TEXT539265
  0
TEXT
  5
266
  8
LAYER1
 62
    18
 10
61.99734314039828
 20
71.85864199662998
 30
0.0
 40
1.789999961853027
  1
OFF
  7
TEXT539268
  0
TEXT
  5
268
  8
LAYER1
 62
    18
 10
61.99734314039828
 20
75.91728399326013
 30
0.0
 40
1.789999961853027
  1
1>2
  7
TEXT539271
  0
LINE
  5
269
  8
LAYER1
 62
    18
 10
90.49999999999987
 20
9.145965120305972
 30
0.0
 11
91.08559999999987
 21
9.145965120305972
 31
0.0
  0
LINE
  5
26A
  8
LAYER1
 62
    18
 10
91.08559999999987
 20
8.70436437571332
 30
0.0
 11
91.67119999999989
 21
8.70436437571332
 31
0.0
  0
LINE
  5
26B
  8
LAYER1
 62
    18
 10
91.67119999999989
 20
9.824038180692789
 30
0.0
 11
92.25679999999988
 21
9.824038180692789
 31
0.0
  0
LINE
  5
26C
  8
LAYER1
 62
    18
 10
92.25679999999988
 20
8.004129248358371
 30
0.0
 11
92.84239999999988
 21
8.004129248358371
 31
0.0
  0
LINE
  5
26D
  8
LAYER1
 62
    18
 10
91.08559999999987
 20
9.145965120305972
 30
0.0
 11
91.08559999999987
 21
8.70436437571332
 31
0.0
  0
LINE
  5
26E
  8
LAYER1
 62
    18
 10
90.49999999999987
 20
9.145965120305972
 30
0.0
 11
90.49999999999987
 21
8.047965120305966
 31
0.0
  0
LINE
  5
26F
  8
LAYER1
 62
    18
 10
93.42799999999987
 20
8.94784291280423
 30
0.0
 11
92.84239999999988
 21
8.94784291280423
 31
0.0
  0
LINE
  5
270
  8
LAYER1
 62
    18
 10
93.42799999999987
 20
8.94784291280423
 30
0.0
 11
93.42799999999987
 21
8.376327232087025
 31
0.0
  0
LINE
  5
271
  8
LAYER1
 62
    18
 10
92.25679999999988
 20
8.376327232087025
 30
0.0
 11
92.25679999999988
 21
8.004129248358371
 31
0.0
  0
LINE
  5
272
  8
LAYER1
 62
    18
 10
92.84239999999988
 20
8.004129248358371
 30
0.0
 11
92.84239999999988
 21
8.94784291280423
 31
0.0
  0
LINE
  5
273
  8
LAYER1
 62
    18
 10
91.67119999999989
 20
8.70436437571332
 30
0.0
 11
91.67119999999989
 21
9.824038180692789
 31
0.0
  0
LINE
  5
274
  8
LAYER1
 62
    18
 10
92.25679999999988
 20
9.824038180692789
 30
0.0
 11
92.25679999999988
 21
8.376327232087025
 31
0.0
  0
LINE
  5
275
  8
LAYER1
 62
   250
 10
24.97320917133626
 20
47.79995778706867
 30
0.0
 11
24.97320917133626
 21
49.62995778706868
 31
0.0
  0
LINE
  5
276
  8
LAYER1
 62
   250
 10
24.97320917133626
 20
49.62995778706868
 30
0.0
 11
23.50000000000001
 21
47.79995778706867
 31
0.0
  0
LINE
  5
277
  8
LAYER1
 62
   250
 10
26.4464183426725
 20
47.79995778706867
 30
0.0
 11
26.4464183426725
 21
49.62995778706868
 31
0.0
  0
LINE
  5
278
  8
LAYER1
 62
   250
 10
26.4464183426725
 20
49.62995778706868
 30
0.0
 11
24.97320917133626
 21
47.79995778706867
 31
0.0
  0
LINE
  5
279
  8
LAYER1
 62
    18
 10
90.49999999999986
 20
15.96999999999998
 30
0.0
 11
91.23660458566798
 21
17.79999999999998
 31
0.0
  0
LINE
  5
27A
  8
LAYER1
 62
    18
 10
91.23660458566798
 20
17.79999999999998
 30
0.0
 11
91.9732091713361
 21
15.96999999999998
 31
0.0
  0
LINE
  5
27B
  8
LAYER1
 62
    18
 10
91.9732091713361
 20
15.96999999999998
 30
0.0
 11
92.70981375700423
 21
17.79999999999998
 31
0.0
  0
LINE
  5
27C
  8
LAYER1
 62
    18
 10
92.70981375700423
 20
17.79999999999998
 30
0.0
 11
93.44641834267235
 21
15.96999999999998
 31
0.0
  0
LINE
  5
27D
  8
LAYER1
 62
   250
 10
91.96399999999988
 20
11.88500000000001
 30
0.0
 11
93.42799999999991
 21
11.88500000000001
 31
0.0
  0
LINE
  5
27E
  8
LAYER1
 62
   250
 10
91.96399999999988
 20
13.71500000000002
 30
0.0
 11
91.96399999999988
 21
11.88500000000001
 31
0.0
  0
LINE
  5
27F
  8
LAYER1
 62
   250
 10
93.42799999999991
 20
13.71500000000002
 30
0.0
 11
93.42799999999991
 21
11.88500000000001
 31
0.0
  0
LINE
  5
280
  8
LAYER1
 62
   250
 10
91.96399999999988
 20
13.71500000000002
 30
0.0
 11
90.49999999999986
 21
13.71500000000002
 31
0.0
  0
LINE
  5
281
  8
LAYER1
 62
   250
 10
90.49999999999986
 20
11.88500000000001
 30
0.0
 11
90.49999999999986
 21
13.71500000000002
 31
0.0
  0
TEXT
  5
283
  8
LAYER1
 62
    18
 10
83.19444454196413
 20
5.128719239118621
 30
0.0
 40
1.789999961853027
  1
SHAPE
  7
TEXT539324
  0
LINE
  5
284
  8
LAYER1
 62
    18
 10
23.50000000000001
 20
55.96999999999973
 30
0.0
 11
24.23660458566813
 21
57.79999999999973
 31
0.0
  0
LINE
  5
285
  8
LAYER1
 62
    18
 10
24.23660458566813
 20
57.79999999999973
 30
0.0
 11
24.97320917133625
 21
55.96999999999973
 31
0.0
  0
LINE
  5
286
  8
LAYER1
 62
    18
 10
24.97320917133625
 20
55.96999999999973
 30
0.0
 11
25.70981375700437
 21
57.79999999999973
 31
0.0
  0
LINE
  5
287
  8
LAYER1
 62
    18
 10
25.70981375700437
 20
57.79999999999973
 30
0.0
 11
26.44641834267249
 21
55.96999999999973
 31
0.0
  0
LINE
  5
288
  8
LAYER1
 62
   250
 10
24.96400000000003
 20
51.88499999999976
 30
0.0
 11
26.42800000000005
 21
51.88499999999976
 31
0.0
  0
LINE
  5
289
  8
LAYER1
 62
   250
 10
24.96400000000003
 20
53.71499999999977
 30
0.0
 11
24.96400000000003
 21
51.88499999999976
 31
0.0
  0
LINE
  5
28A
  8
LAYER1
 62
   250
 10
26.42800000000005
 20
53.71499999999977
 30
0.0
 11
26.42800000000005
 21
51.88499999999976
 31
0.0
  0
LINE
  5
28B
  8
LAYER1
 62
   250
 10
24.96400000000003
 20
53.71499999999977
 30
0.0
 11
23.50000000000001
 21
53.71499999999977
 31
0.0
  0
LINE
  5
28C
  8
LAYER1
 62
   250
 10
23.50000000000001
 20
51.88499999999976
 30
0.0
 11
23.50000000000001
 21
53.71499999999977
 31
0.0
  0
LINE
  5
28D
  8
LAYER1
 62
   250
 10
50.97320917133617
 20
48.71495778706868
 30
0.0
 11
50.97320917133617
 21
50.54495778706868
 31
0.0
  0
LINE
  5
28E
  8
LAYER1
 62
   250
 10
50.97320917133617
 20
50.54495778706868
 30
0.0
 11
49.49999999999993
 21
48.71495778706868
 31
0.0
  0
LINE
  5
28F
  8
LAYER1
 62
   250
 10
52.44641834267242
 20
48.71495778706868
 30
0.0
 11
52.44641834267242
 21
50.54495778706868
 31
0.0
  0
LINE
  5
290
  8
LAYER1
 62
   250
 10
52.44641834267242
 20
50.54495778706868
 30
0.0
 11
50.97320917133617
 21
48.71495778706868
 31
0.0
  0
LINE
  5
291
  8
LAYER1
 62
    18
 10
49.49999999999993
 20
56.88499999999973
 30
0.0
 11
50.23660458566805
 21
58.71499999999973
 31
0.0
  0
LINE
  5
292
  8
LAYER1
 62
    18
 10
50.23660458566805
 20
58.71499999999973
 30
0.0
 11
50.97320917133617
 21
56.88499999999973
 31
0.0
  0
LINE
  5
293
  8
LAYER1
 62
    18
 10
50.97320917133617
 20
56.88499999999973
 30
0.0
 11
51.7098137570043
 21
58.71499999999973
 31
0.0
  0
LINE
  5
294
  8
LAYER1
 62
    18
 10
51.7098137570043
 20
58.71499999999973
 30
0.0
 11
52.44641834267242
 21
56.88499999999973
 31
0.0
  0
LINE
  5
295
  8
LAYER1
 62
   250
 10
50.96399999999996
 20
52.79999999999976
 30
0.0
 11
52.42799999999997
 21
52.79999999999976
 31
0.0
  0
LINE
  5
296
  8
LAYER1
 62
   250
 10
50.96399999999996
 20
54.62999999999977
 30
0.0
 11
50.96399999999996
 21
52.79999999999976
 31
0.0
  0
LINE
  5
297
  8
LAYER1
 62
   250
 10
52.42799999999997
 20
54.62999999999977
 30
0.0
 11
52.42799999999997
 21
52.79999999999976
 31
0.0
  0
LINE
  5
298
  8
LAYER1
 62
   250
 10
50.96399999999996
 20
54.62999999999977
 30
0.0
 11
49.49999999999993
 21
54.62999999999977
 31
0.0
  0
LINE
  5
299
  8
LAYER1
 62
   250
 10
49.49999999999993
 20
52.79999999999976
 30
0.0
 11
49.49999999999993
 21
54.62999999999977
 31
0.0
  0
TEXT
  5
29B
  8
LAYER1
 62
    18
 10
17.02777785642281
 20
25.80615379919173
 30
0.0
 40
1.789999961853027
  1
VCO2
  7
TEXT539371
  0
TEXT
  5
29D
  8
LAYER1
 62
    18
 10
17.58333339939516
 20
23.67912813353853
 30
0.0
 40
1.789999961853027
  1
MOD
  7
TEXT539374
  0
TEXT
  5
29F
  8
LAYER1
 62
    18
 10
43.02777785642272
 20
25.86082158601071
 30
0.0
 40
1.789999961853027
  1
VCO2
  7
TEXT539377
  0
TEXT
  5
2A1
  8
LAYER1
 62
    18
 10
43.58333339939507
 20
23.73379592035752
 30
0.0
 40
1.789999961853027
  1
MOD
  7
TEXT539380
  0
TEXT
  5
2A3
  8
LAYER1
 62
    18
 10
4.027777856422794
 20
25.86082158601071
 30
0.0
 40
1.789999961853027
  1
VCO1
  7
TEXT539383
  0
TEXT
  5
2A5
  8
LAYER1
 62
    18
 10
30.02777785642279
 20
5.128719869005313
 30
0.0
 40
1.789999961853027
  1
VCO2
  7
TEXT539386
  0
TEXT
  5
2A7
  8
LAYER1
 62
    18
 10
29.40277787057889
 20
2.79452138426043
 30
0.0
 40
1.789999961853027
  1
TRACK
  7
TEXT539389
  0
LINE
  5
2A8
  8
LAYER1
  6
DOT
 62
    18
 10
30.69999999999995
 20
6.700000000000005
 30
0.0
 11
36.29999999999995
 21
6.700000000000005
 31
0.0
  0
LINE
  5
2A9
  8
LAYER1
  6
DOT
 62
    18
 10
36.29999999999995
 20
6.700000000000005
 30
0.0
 11
36.29999999999995
 21
18.90000000000004
 31
0.0
  0
LINE
  5
2AA
  8
LAYER1
  6
DOT
 62
    18
 10
36.29999999999995
 20
18.90000000000004
 30
0.0
 11
30.69999999999995
 21
18.90000000000004
 31
0.0
  0
LINE
  5
2AB
  8
LAYER1
  6
DOT
 62
    18
 10
30.69999999999995
 20
18.90000000000004
 30
0.0
 11
30.69999999999995
 21
6.700000000000005
 31
0.0
  0
LINE
  5
2AC
  8
LAYER1
 62
    18
 10
31.99999999999996
 20
12.8
 30
0.0
 11
34.99999999999995
 21
12.8
 31
0.0
  0
LINE
  5
2AD
  8
LAYER1
 62
    18
 10
34.99999999999995
 20
12.8
 30
0.0
 11
34.99999999999995
 21
15.80000000000002
 31
0.0
  0
LINE
  5
2AE
  8
LAYER1
 62
    18
 10
34.99999999999995
 20
15.80000000000002
 30
0.0
 11
31.99999999999996
 21
15.80000000000002
 31
0.0
  0
LINE
  5
2AF
  8
LAYER1
 62
    18
 10
31.99999999999996
 20
15.80000000000002
 30
0.0
 11
31.99999999999996
 21
12.8
 31
0.0
  0
LINE
  5
2B0
  8
LAYER1
 62
    18
 10
31.99999999999996
 20
14.30000000000002
 30
0.0
 11
34.99999999999995
 21
14.30000000000002
 31
0.0
  0
LINE
  5
2B1
  8
LAYER1
 62
    18
 10
33.49999999999996
 20
15.05000000000001
 30
0.0
 11
34.99999999999995
 21
15.05000000000001
 31
0.0
  0
LINE
  5
2B2
  8
LAYER1
 62
    18
 10
33.49999999999996
 20
15.05000000000001
 30
0.0
 11
31.99999999999996
 21
15.05000000000001
 31
0.0
  0
LINE
  5
2B3
  8
LAYER1
 62
    18
 10
34.99999999999995
 20
13.55000000000003
 30
0.0
 11
31.99999999999996
 21
13.55000000000003
 31
0.0
  0
LINE
  5
2B4
  8
LAYER1
 62
    18
 10
31.99999999999996
 20
12.8
 30
0.0
 11
34.99999999999995
 21
12.8
 31
0.0
  0
LINE
  5
2B5
  8
LAYER1
 62
    18
 10
34.99999999999995
 20
12.8
 30
0.0
 11
34.99999999999995
 21
9.80000000000001
 31
0.0
  0
LINE
  5
2B6
  8
LAYER1
 62
    18
 10
34.99999999999995
 20
9.80000000000001
 30
0.0
 11
31.99999999999996
 21
9.80000000000001
 31
0.0
  0
LINE
  5
2B7
  8
LAYER1
 62
    18
 10
31.99999999999996
 20
9.80000000000001
 30
0.0
 11
31.99999999999996
 21
12.8
 31
0.0
  0
TEXT
  5
2B9
  8
LAYER1
 62
    18
 10
126.000019840079
 20
65.27856277538422
 30
0.0
 40
1.789999961853027
  1
EG2
  7
TEXT539428
  0
TEXT
  5
2BB
  8
LAYER1
 62
    18
 10
125.9305753972075
 20
62.94436429063933
 30
0.0
 40
1.789999961853027
  1
POL
  7
TEXT539431
  0
LINE
  5
2BC
  8
LAYER1
  6
DOT
 62
    18
 10
125.7000197834546
 20
66.84984290637888
 30
0.0
 11
131.3000197834546
 21
66.84984290637888
 31
0.0
  0
LINE
  5
2BD
  8
LAYER1
  6
DOT
 62
    18
 10
131.3000197834546
 20
66.84984290637888
 30
0.0
 11
131.3000197834546
 21
79.04984290637893
 31
0.0
  0
LINE
  5
2BE
  8
LAYER1
  6
DOT
 62
    18
 10
131.3000197834546
 20
79.04984290637893
 30
0.0
 11
125.7000197834546
 21
79.04984290637893
 31
0.0
  0
LINE
  5
2BF
  8
LAYER1
  6
DOT
 62
    18
 10
125.7000197834546
 20
79.04984290637893
 30
0.0
 11
125.7000197834546
 21
66.84984290637888
 31
0.0
  0
LINE
  5
2C0
  8
LAYER1
 62
    18
 10
127.0000197834547
 20
72.94984290637888
 30
0.0
 11
130.0000197834547
 21
72.94984290637888
 31
0.0
  0
LINE
  5
2C1
  8
LAYER1
 62
    18
 10
130.0000197834547
 20
72.94984290637888
 30
0.0
 11
130.0000197834547
 21
75.9498429063789
 31
0.0
  0
LINE
  5
2C2
  8
LAYER1
 62
    18
 10
130.0000197834547
 20
75.9498429063789
 30
0.0
 11
127.0000197834547
 21
75.9498429063789
 31
0.0
  0
LINE
  5
2C3
  8
LAYER1
 62
    18
 10
127.0000197834547
 20
75.9498429063789
 30
0.0
 11
127.0000197834547
 21
72.94984290637888
 31
0.0
  0
LINE
  5
2C4
  8
LAYER1
 62
    18
 10
127.0000197834547
 20
74.4498429063789
 30
0.0
 11
130.0000197834547
 21
74.4498429063789
 31
0.0
  0
LINE
  5
2C5
  8
LAYER1
 62
    18
 10
128.5000197834547
 20
75.19984290637889
 30
0.0
 11
130.0000197834547
 21
75.19984290637889
 31
0.0
  0
LINE
  5
2C6
  8
LAYER1
 62
    18
 10
128.5000197834547
 20
75.19984290637889
 30
0.0
 11
127.0000197834547
 21
75.19984290637889
 31
0.0
  0
LINE
  5
2C7
  8
LAYER1
 62
    18
 10
130.0000197834547
 20
73.6998429063789
 30
0.0
 11
127.0000197834547
 21
73.6998429063789
 31
0.0
  0
LINE
  5
2C8
  8
LAYER1
 62
    18
 10
127.0000197834547
 20
72.94984290637888
 30
0.0
 11
130.0000197834547
 21
72.94984290637888
 31
0.0
  0
LINE
  5
2C9
  8
LAYER1
 62
    18
 10
130.0000197834547
 20
72.94984290637888
 30
0.0
 11
130.0000197834547
 21
69.94984290637889
 31
0.0
  0
LINE
  5
2CA
  8
LAYER1
 62
    18
 10
130.0000197834547
 20
69.94984290637889
 30
0.0
 11
127.0000197834547
 21
69.94984290637889
 31
0.0
  0
LINE
  5
2CB
  8
LAYER1
 62
    18
 10
127.0000197834547
 20
69.94984290637889
 30
0.0
 11
127.0000197834547
 21
72.94984290637888
 31
0.0
  0
LINE
  5
2CC
  8
CONSTRUCTION
 62
     6
 10
-972.4069916292333
 20
32.79999999999978
 30
0.0
 11
992.6439536499319
 21
32.79999999999978
 31
0.0
  0
LINE
  5
2CD
  8
CONSTRUCTION
 62
     6
 10
74.49999999999989
 20
1032.706991629233
 30
0.0
 11
74.49999999999989
 21
-950.0777647756169
 31
0.0
  0
LINE
  5
2CE
  8
CONSTRUCTION
 62
     6
 10
87.50001978345509
 20
1032.706991629233
 30
0.0
 11
87.50001978345414
 21
-950.0777647756169
 31
0.0
  0
LINE
  5
2CF
  8
CONSTRUCTION
 62
     6
 10
1082.406991629233
 20
72.94984290637886
 30
0.0
 11
-895.3357019669648
 21
72.94984290637886
 31
0.0
  0
LINE
  5
2D0
  8
CONSTRUCTION
 62
     6
 10
-920.4069916292336
 20
52.79999999999977
 30
0.0
 11
1054.406991629233
 21
52.79999999999977
 31
0.0
  0
TEXT
  5
2D2
  8
LAYER1
 62
    18
 10
68.80555568453327
 20
44.91304865327038
 30
0.0
 40
1.789999961853027
  1
SUB OSC
  7
TEXT539480
  0
CIRCLE
  5
2D3
  8
LAYER1
 62
    18
 10
74.49999999999989
 20
52.79999999999977
 30
0.0
 40
3.00000000000004
  0
LINE
  5
2D4
  8
LAYER1
 62
    18
 10
74.10001010997276
 20
54.27321238930521
 30
0.0
 11
74.90001010997275
 21
54.27321238930521
 31
0.0
  0
LINE
  5
2D5
  8
LAYER1
 62
    18
 10
74.90001010997275
 20
54.27321238930521
 30
0.0
 11
74.90001010997275
 21
55.77321238930523
 31
0.0
  0
LINE
  5
2D6
  8
LAYER1
 62
    18
 10
74.10001010997276
 20
54.27321238930521
 30
0.0
 11
74.10001010997276
 21
55.77321238930523
 31
0.0
  0
TEXT
  5
2D8
  8
LAYER1
 62
    18
 10
70.40277787057879
 20
42.93936448744755
 30
0.0
 40
1.789999961853027
  1
LEVEL
  7
TEXT539493
  0
LINE
  5
2D9
  8
LAYER1
  6
DOT
 62
    18
 10
84.49999999999991
 20
44.99999999999974
 30
0.0
 11
90.4999999999999
 21
44.99999999999974
 31
0.0
  0
LINE
  5
2DA
  8
LAYER1
  6
DOT
 62
    18
 10
90.4999999999999
 20
44.99999999999974
 30
0.0
 11
90.4999999999999
 21
60.59999999999977
 31
0.0
  0
LINE
  5
2DB
  8
LAYER1
  6
DOT
 62
    18
 10
90.4999999999999
 20
60.59999999999977
 30
0.0
 11
84.49999999999991
 21
60.59999999999977
 31
0.0
  0
LINE
  5
2DC
  8
LAYER1
  6
DOT
 62
    18
 10
84.49999999999991
 20
60.59999999999977
 30
0.0
 11
84.49999999999991
 21
44.99999999999974
 31
0.0
  0
LINE
  5
2DD
  8
LAYER1
 62
    18
 10
85.99999999999991
 20
56.79999999999971
 30
0.0
 11
88.9999999999999
 21
56.79999999999971
 31
0.0
  0
LINE
  5
2DE
  8
LAYER1
 62
    18
 10
88.99999999999997
 20
56.79999999999971
 30
0.0
 11
88.99999999999997
 21
57.79999999999969
 31
0.0
  0
LINE
  5
2DF
  8
LAYER1
 62
    18
 10
88.9999999999999
 20
57.79999999999969
 30
0.0
 11
85.99999999999991
 21
57.79999999999969
 31
0.0
  0
LINE
  5
2E0
  8
LAYER1
 62
    18
 10
85.99999999999991
 20
57.79999999999969
 30
0.0
 11
85.99999999999991
 21
56.79999999999971
 31
0.0
  0
LINE
  5
2E1
  8
LAYER1
 62
    18
 10
85.99999999999991
 20
55.79999999999974
 30
0.0
 11
88.9999999999999
 21
55.79999999999974
 31
0.0
  0
LINE
  5
2E2
  8
LAYER1
 62
    18
 10
88.99999999999994
 20
55.79999999999974
 30
0.0
 11
88.99999999999994
 21
56.79999999999971
 31
0.0
  0
LINE
  5
2E3
  8
LAYER1
 62
    18
 10
85.99999999999991
 20
56.79999999999971
 30
0.0
 11
85.99999999999991
 21
55.79999999999974
 31
0.0
  0
LINE
  5
2E4
  8
LAYER1
 62
    18
 10
85.99999999999991
 20
54.79999999999974
 30
0.0
 11
88.9999999999999
 21
54.79999999999974
 31
0.0
  0
LINE
  5
2E5
  8
LAYER1
 62
    18
 10
88.99999999999993
 20
54.79999999999974
 30
0.0
 11
88.99999999999993
 21
55.79999999999974
 31
0.0
  0
LINE
  5
2E6
  8
LAYER1
 62
    18
 10
85.99999999999991
 20
55.79999999999974
 30
0.0
 11
85.99999999999991
 21
54.79999999999974
 31
0.0
  0
LINE
  5
2E7
  8
LAYER1
 62
    18
 10
85.99999999999991
 20
53.79999999999974
 30
0.0
 11
88.9999999999999
 21
53.79999999999974
 31
0.0
  0
LINE
  5
2E8
  8
LAYER1
 62
    18
 10
88.9999999999999
 20
53.79999999999974
 30
0.0
 11
88.9999999999999
 21
54.79999999999974
 31
0.0
  0
LINE
  5
2E9
  8
LAYER1
 62
    18
 10
85.99999999999991
 20
54.79999999999974
 30
0.0
 11
85.99999999999991
 21
53.79999999999974
 31
0.0
  0
LINE
  5
2EA
  8
LAYER1
 62
    18
 10
85.99999999999991
 20
52.79999999999972
 30
0.0
 11
88.9999999999999
 21
52.79999999999972
 31
0.0
  0
LINE
  5
2EB
  8
LAYER1
 62
    18
 10
88.9999999999999
 20
52.79999999999972
 30
0.0
 11
88.9999999999999
 21
53.79999999999974
 31
0.0
  0
LINE
  5
2EC
  8
LAYER1
 62
    18
 10
85.99999999999991
 20
53.79999999999974
 30
0.0
 11
85.99999999999991
 21
52.79999999999972
 31
0.0
  0
LINE
  5
2ED
  8
LAYER1
 62
    18
 10
85.99999999999991
 20
57.79999999999969
 30
0.0
 11
88.9999999999999
 21
57.79999999999969
 31
0.0
  0
LINE
  5
2EE
  8
LAYER1
 62
    18
 10
88.9999999999999
 20
57.79999999999969
 30
0.0
 11
88.9999999999999
 21
47.79995778706867
 31
0.0
  0
LINE
  5
2EF
  8
LAYER1
 62
    18
 10
88.9999999999999
 20
47.79995778706867
 30
0.0
 11
85.99999999999991
 21
47.79995778706867
 31
0.0
  0
LINE
  5
2F0
  8
LAYER1
 62
    18
 10
85.99999999999991
 20
47.79995778706867
 30
0.0
 11
85.99999999999991
 21
57.79999999999969
 31
0.0
  0
LINE
  5
2F1
  8
LAYER1
 62
   250
 10
95.28129131833124
 20
51.83169016277683
 30
0.0
 11
96.74529131833125
 21
51.83169016277683
 31
0.0
  0
LINE
  5
2F2
  8
LAYER1
 62
   250
 10
95.28129131833124
 20
53.66169016277684
 30
0.0
 11
95.28129131833124
 21
51.83169016277683
 31
0.0
  0
LINE
  5
2F3
  8
LAYER1
 62
   250
 10
96.74529131833125
 20
53.66169016277684
 30
0.0
 11
96.74529131833125
 21
51.83169016277683
 31
0.0
  0
LINE
  5
2F4
  8
LAYER1
 62
   250
 10
95.28129131833124
 20
53.66169016277684
 30
0.0
 11
93.81729131833121
 21
53.66169016277684
 31
0.0
  0
LINE
  5
2F5
  8
LAYER1
 62
   250
 10
93.81729131833121
 20
51.83169016277683
 30
0.0
 11
93.81729131833121
 21
53.66169016277684
 31
0.0
  0
TEXT
  5
2F7
  8
LAYER1
 62
    18
 10
90.4999999999999
 20
55.92666668837241
 30
0.0
 40
1.789999961853027
  1
\U+22121
  7
TEXT539560
  0
TEXT
  5
2F9
  8
LAYER1
 62
    18
 10
90.4999999999999
 20
51.83169016277683
 30
0.0
 40
1.789999961853027
  1
\U+22122
  7
TEXT539563
  0
TEXT
  5
2FB
  8
LAYER1
 62
    18
 10
90.4999999999999
 20
47.79995778706867
 30
0.0
 40
1.789999961853027
  1
\U+22122
  7
TEXT539566
  0
LINE
  5
2FC
  8
LAYER1
 62
   250
 10
95.28129131833124
 20
55.92666668837241
 30
0.0
 11
96.74529131833125
 21
55.92666668837241
 31
0.0
  0
LINE
  5
2FD
  8
LAYER1
 62
   250
 10
95.28129131833124
 20
57.75666668837242
 30
0.0
 11
95.28129131833124
 21
55.92666668837241
 31
0.0
  0
LINE
  5
2FE
  8
LAYER1
 62
   250
 10
96.74529131833125
 20
57.75666668837242
 30
0.0
 11
96.74529131833125
 21
55.92666668837241
 31
0.0
  0
LINE
  5
2FF
  8
LAYER1
 62
   250
 10
95.28129131833124
 20
57.75666668837242
 30
0.0
 11
93.81729131833121
 21
57.75666668837242
 31
0.0
  0
LINE
  5
300
  8
LAYER1
 62
   250
 10
93.81729131833121
 20
55.92666668837241
 30
0.0
 11
93.81729131833121
 21
57.75666668837242
 31
0.0
  0
LINE
  5
301
  8
LAYER1
 62
   250
 10
94.48612798483867
 20
47.79995778706867
 30
0.0
 11
96.74529131833125
 21
47.79995778706867
 31
0.0
  0
LINE
  5
302
  8
LAYER1
 62
   250
 10
94.48612798483867
 20
49.6299577870687
 30
0.0
 11
94.48612798483867
 21
47.79995778706867
 31
0.0
  0
LINE
  5
303
  8
LAYER1
 62
   250
 10
96.74529131833125
 20
49.6299577870687
 30
0.0
 11
96.74529131833125
 21
47.79995778706867
 31
0.0
  0
LINE
  5
304
  8
LAYER1
 62
   250
 10
93.81729131833121
 20
47.79995778706867
 30
0.0
 11
93.81729131833121
 21
49.6299577870687
 31
0.0
  0
LINE
  5
305
  8
LAYER1
 62
    18
 10
93.81729131833121
 20
49.6299577870687
 30
0.0
 11
94.48612798483867
 21
49.6299577870687
 31
0.0
  0
ENDSEC
  0
EOF
